<svg width="55" height="46" viewBox="0 0 55 46" fill="none" xmlns="http://www.w3.org/2000/svg">
<path d="M25.4515 1.48C22.9342 1.48 20.9502 2.78133 19.4995 5.384C18.0488 7.98667 17.3235 10.76 17.3235 13.704C17.3235 14.5573 17.3875 15.3467 17.5155 16.072C18.7955 15.8587 19.9048 15.752 20.8435 15.752C24.8115 15.752 26.7955 16.6907 26.7955 18.568C26.7955 19.2933 26.4115 19.912 25.6435 20.424C24.9182 20.936 23.8302 21.192 22.3795 21.192C19.9048 21.192 17.5582 20.5093 15.3395 19.144C13.6328 20.68 12.2888 22.7067 11.3075 25.224C10.3262 27.7413 9.8355 30.472 9.8355 33.416C9.8355 37 10.7528 39.7947 12.5875 41.8C14.4222 43.8053 17.1315 44.808 20.7155 44.808C25.1528 44.808 28.9075 43.656 31.9795 41.352C35.0942 39.048 36.6515 36.4027 36.6515 33.416C36.6515 31.624 36.1395 30.1947 35.1155 29.128C34.0915 28.0613 32.8968 27.528 31.5315 27.528C30.2088 27.528 28.9928 28.0613 27.8835 29.128C26.7742 30.152 26.2195 31.4107 26.2195 32.904C26.2195 33.8427 26.4755 34.632 26.9875 35.272C27.4995 35.912 28.1822 36.232 29.0355 36.232C30.6568 36.232 31.7875 35.4213 32.4275 33.8L32.9395 33.992C32.1715 35.912 30.7422 36.872 28.6515 36.872C26.8168 36.872 25.1742 36.296 23.7235 35.144C22.2728 33.9493 21.5475 32.328 21.5475 30.28C21.5475 26.3547 24.2782 23.2613 29.7395 21L37.0355 17.992C42.5822 15.688 46.5288 13.7253 48.8755 12.104C51.2222 10.4827 52.3955 8.69066 52.3955 6.728C52.3955 5.49066 51.9475 4.488 51.0515 3.72C50.1982 2.952 49.1955 2.568 48.0435 2.568C47.0195 2.568 46.1448 2.86666 45.4195 3.464C44.7368 4.01866 44.3955 4.72266 44.3955 5.576C44.3955 6.088 44.6942 6.77066 45.2915 7.624C45.9315 8.47733 46.2515 9.24533 46.2515 9.928C46.2515 10.7387 45.9742 11.4 45.4195 11.912C44.8648 12.424 44.2035 12.68 43.4355 12.68C42.4542 12.68 41.6648 12.3173 41.0675 11.592C40.5128 10.8667 40.2355 9.928 40.2355 8.776C40.2355 6.856 41.0035 5.256 42.5395 3.976C44.0755 2.65333 45.8035 1.992 47.7235 1.992C49.6008 1.992 51.1368 2.65333 52.3315 3.976C53.5688 5.29867 54.1875 7.048 54.1875 9.224C54.1875 12.4667 52.9502 15.24 50.4755 17.544C48.0435 19.8053 44.6302 21.832 40.2355 23.624L31.9795 26.952C33.3448 27.0373 34.5822 27.6773 35.6915 28.872C36.8008 30.0667 37.3555 31.5813 37.3555 33.416C37.3555 34.7387 36.9928 36.0827 36.2675 37.448C35.5848 38.8133 34.5608 40.1147 33.1955 41.352C31.8302 42.5893 29.9315 43.6133 27.4995 44.424C25.0675 45.192 22.3155 45.576 19.2435 45.576C13.8248 45.576 9.30217 44.3387 5.6755 41.864C2.04883 39.3467 0.2355 35.9973 0.2355 31.816C0.2355 28.488 1.3875 25.5653 3.6915 23.048C6.03817 20.5307 8.96083 18.6107 12.4595 17.288C10.9662 15.7947 10.2195 14.0027 10.2195 11.912C10.2195 8.92533 11.6062 6.32266 14.3795 4.104C17.1528 1.88533 20.4382 0.775997 24.2355 0.775997C27.4355 0.775997 30.1022 1.62933 32.2355 3.336C34.4115 5 35.4995 6.81333 35.4995 8.776C35.4995 9.71466 35.2222 10.504 34.6675 11.144C34.1128 11.7413 33.3448 12.04 32.3635 12.04C31.5102 12.04 30.8062 11.784 30.2515 11.272C29.6968 10.76 29.4195 10.0347 29.4195 9.096C29.4195 8.712 29.4835 8.15733 29.6115 7.432C29.7395 6.70667 29.8035 6.13066 29.8035 5.704C29.8035 4.424 29.4408 3.4 28.7155 2.632C27.9902 1.864 26.9022 1.48 25.4515 1.48ZM24.9395 16.968C24.1288 16.584 23.0622 16.392 21.7395 16.392C20.4168 16.392 19.1155 16.6907 17.8355 17.288C18.6462 19.5067 20.2888 20.616 22.7635 20.616C23.8302 20.616 24.6622 20.424 25.2595 20.04C25.8568 19.6133 26.1555 19.1227 26.1555 18.568C26.1555 17.8853 25.7502 17.352 24.9395 16.968Z" fill="#333333"/>
</svg>
