<svg width="33" height="21" viewBox="0 0 33 21" fill="none" xmlns="http://www.w3.org/2000/svg">
<path d="M8.17961 15.0559C8.75296 15.0559 9.31346 14.886 9.79022 14.5675C10.267 14.2489 10.6386 13.7962 10.858 13.2664C11.0775 12.7367 11.1349 12.1538 11.0231 11.5914C10.9113 11.029 10.6352 10.5124 10.2297 10.1069C9.82432 9.70146 9.30777 9.42534 8.74543 9.3135C8.18309 9.20165 7.60021 9.2591 7.07052 9.47857C6.54082 9.69804 6.0881 10.0697 5.76961 10.5465C5.45112 11.0233 5.28117 11.5838 5.28125 12.1572C5.28136 12.926 5.58675 13.6632 6.13028 14.2068C6.6738 14.7503 7.41095 15.0558 8.17961 15.0559V15.0559Z" fill="#F4F4F4"/>
<path d="M24.5208 15.0559C26.1218 15.0559 27.4196 13.7579 27.4196 12.1568C27.4196 10.5557 26.1218 9.25781 24.5208 9.25781C22.9199 9.25781 21.6221 10.5557 21.6221 12.1568C21.6221 13.7579 22.9199 15.0559 24.5208 15.0559Z" fill="#F4F4F4"/>
<path d="M16.3497 2.37336C14.204 2.37111 12.0794 2.79613 10.0997 3.62363L9.40793 3.91277L10.1082 4.18063C13.5115 5.48242 16.0526 8.51102 16.0526 11.9971H16.3526H16.6526C16.6526 8.51141 19.1929 5.4832 22.5958 4.18102L23.2958 3.91313L22.6043 3.62404C20.6231 2.7959 18.4969 2.37073 16.3497 2.37336ZM16.3497 2.37336C16.3498 2.37336 16.3499 2.37336 16.3501 2.37336L16.3497 2.67336L16.3494 2.37336C16.3495 2.37336 16.3496 2.37336 16.3497 2.37336ZM10.2154 3.90043L10.3225 3.62023C10.4218 3.6582 10.5205 3.6976 10.6184 3.7384C10.4834 3.79053 10.3491 3.84454 10.2154 3.90043ZM10.2154 3.90043L10.3311 4.17722C10.425 4.13794 10.5193 4.09961 10.614 4.06222C10.4824 4.00569 10.3495 3.95174 10.2154 3.90043ZM8.17931 20.0278H8.1789C3.83206 20.0278 0.308462 16.5043 0.308462 12.1566H0.00883285L0.308462 12.1563C0.307054 11.0612 0.534703 9.97798 0.976783 8.97616C1.41886 7.97434 2.0656 7.07608 2.87543 6.33909L3.0984 6.13618L2.8944 5.91421L0.683153 3.50811H5.94338H6.03578L6.11217 3.45613C9.13393 1.3997 12.7044 0.3 16.3594 0.3C20.0144 0.3 23.5849 1.3997 26.6067 3.45613L26.683 3.50811H26.7754H32.0191L29.8079 5.91421L29.6039 6.13623L29.8269 6.33914C30.637 7.07596 31.284 7.9741 31.7263 8.97586C32.1687 9.97762 32.3966 11.0608 32.3955 12.1559V12.1562C32.3955 16.503 28.8688 20.0274 24.5214 20.0274H24.521C22.5378 20.0303 20.6273 19.2814 19.1743 17.9316L18.9533 17.7263L18.7492 17.9483L16.351 20.5567L13.9527 17.9467L13.7486 17.7246L13.5276 17.93C12.0745 19.2809 10.1633 20.0306 8.17931 20.0278ZM24.5214 20.3274C29.0343 20.3274 32.6955 16.6688 32.6955 12.1562L24.5214 20.3274ZM0.00846204 12.1566C0.00846204 16.67 3.66636 20.3278 8.1789 20.3278L0.00846204 12.1566ZM29.3673 15.3956C30.0078 14.4369 30.3497 13.3097 30.3497 12.1566C30.3497 10.6104 29.7356 9.12752 28.6423 8.03417C27.5491 6.94082 26.0663 6.32657 24.5202 6.32657C23.3672 6.32657 22.2401 6.66851 21.2814 7.30913C20.3228 7.94975 19.5756 8.86028 19.1344 9.92558C18.6931 10.9909 18.5777 12.1631 18.8026 13.294C19.0276 14.4249 19.5828 15.4638 20.398 16.2791C21.2133 17.0945 22.2521 17.6497 23.3829 17.8747C24.5137 18.0996 25.6858 17.9842 26.7511 17.5429C27.8163 17.1017 28.7267 16.3544 29.3673 15.3956ZM11.4176 7.30913C10.459 6.66851 9.33188 6.32657 8.1789 6.32657C6.63279 6.32657 5.15002 6.94082 4.05677 8.03417C2.96352 9.12752 2.34934 10.6104 2.34934 12.1566C2.34934 13.3097 2.69123 14.4369 3.33179 15.3956C3.97235 16.3544 4.8828 17.1017 5.94801 17.5429C7.01323 17.9842 8.18537 18.0996 9.3162 17.8747C10.447 17.6497 11.4858 17.0945 12.301 16.2791C13.1163 15.4638 13.6715 14.4249 13.8965 13.294C14.1214 12.1631 14.0059 10.9909 13.5647 9.92558C13.1235 8.86028 12.3763 7.94975 11.4176 7.30913Z" fill="#F4F4F4" stroke="#292929" stroke-width="0.6"/>
</svg>
