<svg width="48" height="48" viewBox="0 0 48 48" fill="none" xmlns="http://www.w3.org/2000/svg">
<path d="M33.2237 29.0387C33.2237 29.3537 33.1537 29.6775 33.005 29.9925C32.8562 30.3075 32.6638 30.605 32.41 30.885C31.9813 31.3575 31.5087 31.6988 30.975 31.9175C30.45 32.1363 29.8813 32.25 29.2688 32.25C28.3763 32.25 27.4225 32.04 26.4162 31.6113C25.41 31.1825 24.4037 30.605 23.4062 29.8788C22.4 29.1438 21.4462 28.33 20.5362 27.4287C19.635 26.5187 18.8212 25.565 18.095 24.5675C17.3775 23.57 16.8 22.5725 16.38 21.5838C15.96 20.5863 15.75 19.6325 15.75 18.7225C15.75 18.1275 15.855 17.5588 16.065 17.0338C16.275 16.5 16.6075 16.01 17.0712 15.5725C17.6312 15.0213 18.2438 14.75 18.8913 14.75C19.1363 14.75 19.3813 14.8025 19.6 14.9075C19.8275 15.0125 20.0288 15.17 20.1863 15.3975L22.2163 18.2588C22.3738 18.4775 22.4875 18.6788 22.5662 18.8713C22.645 19.055 22.6888 19.2388 22.6888 19.405C22.6888 19.615 22.6275 19.825 22.505 20.0262C22.3913 20.2275 22.225 20.4375 22.015 20.6475L21.35 21.3387C21.2537 21.435 21.21 21.5488 21.21 21.6888C21.21 21.7588 21.2188 21.82 21.2363 21.89C21.2625 21.96 21.2888 22.0125 21.3063 22.065C21.4638 22.3537 21.735 22.73 22.12 23.185C22.5137 23.64 22.9337 24.1038 23.3887 24.5675C23.8612 25.0313 24.3162 25.46 24.78 25.8537C25.235 26.2387 25.6112 26.5012 25.9087 26.6587C25.9525 26.6762 26.005 26.7025 26.0662 26.7287C26.1362 26.755 26.2062 26.7637 26.285 26.7637C26.4337 26.7637 26.5475 26.7113 26.6437 26.615L27.3088 25.9588C27.5275 25.74 27.7375 25.5737 27.9388 25.4688C28.14 25.3462 28.3412 25.285 28.56 25.285C28.7262 25.285 28.9013 25.32 29.0938 25.3988C29.2862 25.4775 29.4875 25.5913 29.7063 25.74L32.6025 27.7962C32.83 27.9537 32.9875 28.1375 33.0837 28.3562C33.1712 28.575 33.2237 28.7937 33.2237 29.0387Z" stroke="#F4F4F4" stroke-width="1.5" stroke-miterlimit="10"/>
<circle cx="24" cy="24" r="23.25" stroke="#BF83B3" stroke-width="1.5"/>
</svg>
