<svg width="181" height="131" viewBox="0 0 181 131" fill="none" xmlns="http://www.w3.org/2000/svg">
<path fill-rule="evenodd" clip-rule="evenodd" d="M38.5532 38.869C39.0411 39.1496 39.4363 39.5973 39.671 40.0868L40.3133 41.442L41.9931 44.9643C42.0548 45.0896 41.9499 45.1852 41.8202 45.1195L38.2568 43.3345L36.8672 42.636C36.3917 42.3972 35.9594 42.0211 35.7062 41.5554C35.1751 40.5883 35.663 39.9913 36.3238 39.3764C36.9846 38.7615 37.5404 38.2839 38.547 38.863L38.5532 38.869Z" fill="#BF83B3"/>
<path fill-rule="evenodd" clip-rule="evenodd" d="M47.2848 34.481C47.396 35.3467 47.1983 36.2601 46.7846 37.0242L45.6482 39.1197L42.6962 44.5762C42.5913 44.7672 42.3628 44.7374 42.3257 44.5225L41.1955 38.463L40.7571 36.0929C40.6089 35.281 40.6768 34.3915 41.035 33.6333C41.7761 32.0572 43.0297 32.0632 44.4625 32.2781C45.8953 32.493 47.0625 32.702 47.291 34.487L47.2848 34.481Z" fill="#BF83B3"/>
<path fill-rule="evenodd" clip-rule="evenodd" d="M57.5315 38.3024C56.7596 39.1501 55.7035 39.8367 54.6351 40.2367L51.6893 41.3351L44.0252 44.2067C43.7535 44.3082 43.6114 44.1231 43.7967 43.9022L48.9226 37.6995L50.9297 35.2757C51.6152 34.4458 52.5539 33.6936 53.5729 33.2578C55.7035 32.3504 56.6608 33.216 57.5501 34.3861C58.4394 35.5562 59.1249 36.5473 57.5377 38.3024H57.5315Z" fill="#BF83B3"/>
<path fill-rule="evenodd" clip-rule="evenodd" d="M54.3527 43.7992C53.5313 43.435 52.5741 43.3454 51.6972 43.4947L49.2886 43.9126L43.0141 44.9991C42.7918 45.0349 42.7609 45.2558 42.9585 45.3573L48.5969 48.2169L50.8017 49.3333C51.5551 49.7154 52.4568 49.9183 53.309 49.8168C55.0876 49.6019 55.4582 48.4497 55.6805 47.0647C55.9028 45.6797 56.0449 44.5454 54.3527 43.7992V43.7992Z" fill="#BF83B3"/>
<path fill-rule="evenodd" clip-rule="evenodd" d="M47.4004 50.5333C47.2707 50.002 46.9496 49.5005 46.5358 49.1363L45.3933 48.1393L42.4228 45.5305C42.3178 45.4409 42.1943 45.5066 42.2128 45.6379L42.9045 49.4587L43.1762 50.9512C43.2688 51.4646 43.5097 51.972 43.8926 52.3481C44.6893 53.1242 45.4242 52.8616 46.227 52.4317C47.0299 52.0019 47.666 51.6377 47.4004 50.5333V50.5333Z" fill="#BF83B3"/>
<path fill-rule="evenodd" clip-rule="evenodd" d="M77.0917 44.8503C76.573 45.316 75.8751 45.6145 75.1773 45.71L73.269 45.9726L68.2975 46.6532C68.1246 46.6771 68.0381 46.5219 68.1616 46.3965L71.6509 42.9101L73.0158 41.5489C73.4851 41.0833 74.1089 40.7191 74.7697 40.5878C76.153 40.3251 76.7274 41.1012 77.2461 42.0862C77.7649 43.0713 78.1601 43.8891 77.0856 44.8503H77.0917Z" fill="#BF83B3"/>
<path fill-rule="evenodd" clip-rule="evenodd" d="M79.4017 56.5389C78.2901 56.3598 77.2278 55.7986 76.4312 55.0464L74.245 52.9808L68.5386 47.6019C68.341 47.4108 68.4583 47.1601 68.7424 47.1899L76.6535 48.0556L79.7475 48.3959C80.8036 48.5093 81.8843 48.9152 82.6934 49.5958C84.3793 51.0226 83.9285 52.4674 83.1504 54.0554C82.3722 55.6434 81.6929 56.909 79.4017 56.5389Z" fill="#BF83B3"/>
<path fill-rule="evenodd" clip-rule="evenodd" d="M70.9973 67.026C70.2192 65.832 69.7498 64.3634 69.6387 62.9784L69.3299 59.1756L68.5209 49.2655C68.49 48.9192 68.7741 48.8177 68.9779 49.1043L74.8325 57.2652L77.1175 60.4531C77.9018 61.5456 78.4947 62.9008 78.6676 64.2381C79.0258 67.032 77.6115 67.826 75.8391 68.4349C74.0667 69.0439 72.5969 69.4856 70.9912 67.0201L70.9973 67.026Z" fill="#BF83B3"/>
<path fill-rule="evenodd" clip-rule="evenodd" d="M65.3182 61.3893C66.0593 60.5714 66.5225 59.4908 66.646 58.4222L66.9918 55.485L67.8935 47.8316C67.9244 47.5629 67.665 47.4435 67.4674 47.6346L61.903 53.1388L59.7292 55.294C58.9881 56.0283 58.4138 57.0014 58.2285 58.0282C57.8518 60.1654 59.1548 61.0072 60.7914 61.7594C62.428 62.5116 63.7866 63.0847 65.3182 61.3953V61.3893Z" fill="#BF83B3"/>
<path fill-rule="evenodd" clip-rule="evenodd" d="M59.4582 50.9163C60.1684 50.958 60.9033 50.767 61.5023 50.4148L63.1512 49.4477L67.4496 46.9403C67.5978 46.8507 67.5607 46.6836 67.3878 46.6597L62.404 46.0926L60.4586 45.8717C59.7917 45.7941 59.0691 45.8955 58.4701 46.2C57.2226 46.8388 57.2843 47.794 57.5313 48.8745C57.7784 49.9551 58.0007 50.8267 59.4643 50.9163H59.4582Z" fill="#BF83B3"/>
<path fill-rule="evenodd" clip-rule="evenodd" d="M89.6263 32.2448C89.9228 32.6686 90.071 33.1999 90.0648 33.7134L90.0463 35.1103L90.0031 38.746C90.0031 38.8714 89.8734 38.9132 89.7931 38.8117L87.5204 35.9163L86.6311 34.782C86.3285 34.3939 86.1185 33.9044 86.0938 33.4149C86.0506 32.394 86.7052 32.0716 87.5204 31.8149C88.3356 31.5582 89.0026 31.3672 89.614 32.2448H89.6263Z" fill="#BF83B3"/>
<path fill-rule="evenodd" clip-rule="evenodd" d="M98.8407 31.9295C98.5751 32.7056 98.0255 33.3981 97.3585 33.8817L95.5243 35.213L90.7566 38.6815C90.5899 38.8009 90.4108 38.6815 90.4664 38.4905L92.0288 32.9265L92.6402 30.7534C92.8502 30.0132 93.2825 29.2848 93.8939 28.7834C95.1785 27.7386 96.2345 28.2282 97.3585 28.9684C98.4825 29.7087 99.378 30.3355 98.8283 31.9295H98.8407Z" fill="#BF83B3"/>
<path fill-rule="evenodd" clip-rule="evenodd" d="M105.911 39.14C104.905 39.5579 103.731 39.731 102.657 39.6534L99.7109 39.4385L92.0344 38.8893C91.7627 38.8713 91.7195 38.6564 91.9665 38.543L98.8771 35.2834L101.582 34.0118C102.508 33.576 103.614 33.3074 104.658 33.3372C106.838 33.3969 107.282 34.5014 107.548 35.8386C107.813 37.1759 107.986 38.2743 105.911 39.146V39.14Z" fill="#BF83B3"/>
<path fill-rule="evenodd" clip-rule="evenodd" d="M100.946 42.5561C100.402 41.9352 99.6303 41.4815 98.8212 41.2666L96.6103 40.6875L90.8546 39.1711C90.6508 39.1174 90.5334 39.2905 90.6569 39.4517L94.2389 44.0605L95.6408 45.8634C96.1225 46.4783 96.7956 47.0037 97.5614 47.2484C99.1547 47.7619 99.9452 46.9261 100.711 45.8395C101.477 44.753 102.064 43.8456 100.946 42.562V42.5561Z" fill="#BF83B3"/>
<path fill-rule="evenodd" clip-rule="evenodd" d="M92.261 45.5545C92.3722 45.053 92.3104 44.5037 92.1066 44.0381L91.557 42.7486L90.1242 39.3875C90.0748 39.2681 89.939 39.2801 89.9019 39.3995L88.9014 42.8978L88.5124 44.265C88.3765 44.7306 88.3703 45.2619 88.5371 45.7216C88.8829 46.6887 89.6178 46.7484 90.4762 46.7007C91.3347 46.6529 92.0264 46.5873 92.261 45.5545V45.5545Z" fill="#BF83B3"/>
<path fill-rule="evenodd" clip-rule="evenodd" d="M106.022 19.5367C106.361 19.3875 106.763 19.3517 107.121 19.4233L108.115 19.6024L110.703 20.074C110.795 20.0919 110.808 20.1815 110.728 20.2233L108.387 21.3874L107.473 21.8411C107.158 21.9963 106.787 22.0799 106.435 22.0322C105.701 21.9366 105.552 21.459 105.466 20.8859C105.379 20.3128 105.324 19.8412 106.028 19.5367H106.022Z" fill="#BF83B3"/>
<path fill-rule="evenodd" clip-rule="evenodd" d="M106.911 13.354C107.43 13.6226 107.862 14.0763 108.128 14.5778L108.856 15.9628L110.758 19.5627C110.826 19.6881 110.721 19.7955 110.586 19.7358L106.8 18.0165L105.324 17.3419C104.817 17.115 104.348 16.7389 104.07 16.2673C103.477 15.2823 103.959 14.6375 104.62 13.9748C105.281 13.3122 105.843 12.7928 106.917 13.348L106.911 13.354Z" fill="#BF83B3"/>
<path fill-rule="evenodd" clip-rule="evenodd" d="M112.913 9.50332C113.092 10.2257 113.068 11.0316 112.882 11.7361L112.376 13.6763L111.054 18.7328C111.005 18.9119 110.851 18.9119 110.801 18.7328L109.313 13.7241L108.732 11.7659C108.535 11.0973 108.473 10.3272 108.621 9.63466C108.93 8.18994 109.77 8.02278 110.758 8.00487C111.746 7.98696 112.555 8.00487 112.919 9.49735L112.913 9.50332Z" fill="#BF83B3"/>
<path fill-rule="evenodd" clip-rule="evenodd" d="M114.755 13.2328C114.242 13.5194 113.829 13.9791 113.582 14.4925L112.902 15.8954L111.124 19.555C111.062 19.6863 111.167 19.7878 111.303 19.7221L115.027 17.8894L116.484 17.173C116.984 16.9282 117.435 16.5402 117.707 16.0566C118.263 15.0537 117.769 14.4268 117.083 13.7821C116.398 13.1373 115.823 12.6358 114.767 13.2269L114.755 13.2328Z" fill="#BF83B3"/>
<path fill-rule="evenodd" clip-rule="evenodd" d="M115.843 19.3882C115.497 19.2509 115.102 19.227 114.737 19.3046L113.749 19.5136L111.174 20.0628C111.081 20.0807 111.075 20.1762 111.156 20.212L113.533 21.3045L114.466 21.7284C114.781 21.8717 115.157 21.9433 115.509 21.8896C116.244 21.7762 116.374 21.2926 116.442 20.7135C116.51 20.1344 116.547 19.6628 115.837 19.3822L115.843 19.3882Z" fill="#BF83B3"/>
<path fill-rule="evenodd" clip-rule="evenodd" d="M168.348 46.9871C168.422 47.393 168.348 47.8288 168.175 48.199L167.687 49.2138L166.421 51.8645C166.377 51.96 166.266 51.9481 166.242 51.8466L165.562 49.0049L165.297 47.8945C165.204 47.5124 165.216 47.0885 165.371 46.7244C165.686 45.9602 166.279 45.9363 166.958 46.002C167.637 46.0677 168.199 46.1453 168.348 46.9811V46.9871Z" fill="#BF83B3"/>
<path fill-rule="evenodd" clip-rule="evenodd" d="M175.209 49.6788C174.752 50.1623 174.116 50.4967 173.461 50.6399L171.67 51.034L167.002 52.0608C166.835 52.0966 166.748 51.9533 166.853 51.828L169.886 48.246L171.071 46.849C171.479 46.3714 172.041 45.9715 172.665 45.8043C173.962 45.4461 174.567 46.1386 175.141 47.0341C175.716 47.9296 176.16 48.6758 175.215 49.6728L175.209 49.6788Z" fill="#BF83B3"/>
<path fill-rule="evenodd" clip-rule="evenodd" d="M177.945 57.21C177.068 57.198 176.148 56.9473 175.388 56.5533L173.301 55.4608L167.86 52.6191C167.669 52.5176 167.712 52.3504 167.928 52.3445L174.104 52.1475L176.518 52.0698C177.346 52.046 178.248 52.1952 179.001 52.5474C180.576 53.2817 180.533 54.231 180.273 55.2996C180.014 56.3682 179.767 57.2219 177.951 57.204L177.945 57.21Z" fill="#BF83B3"/>
<path fill-rule="evenodd" clip-rule="evenodd" d="M173.144 58.1359C172.958 57.509 172.545 56.9299 172.026 56.518L170.605 55.3897L166.9 52.4525C166.77 52.351 166.622 52.4346 166.659 52.5958L167.715 57.109L168.129 58.8702C168.271 59.4731 168.592 60.0701 169.068 60.494C170.062 61.3775 170.927 61.0134 171.853 60.4582C172.779 59.903 173.52 59.4254 173.137 58.1299L173.144 58.1359Z" fill="#BF83B3"/>
<path fill-rule="evenodd" clip-rule="evenodd" d="M165.765 57.5799C166.018 57.2456 166.154 56.8277 166.166 56.4158L166.203 55.2934L166.296 52.3741C166.296 52.2727 166.197 52.2368 166.129 52.3144L164.209 54.5591L163.455 55.4367C163.196 55.7352 163.011 56.1233 162.98 56.5173C162.906 57.3352 163.424 57.6157 164.067 57.8486C164.709 58.0814 165.24 58.2545 165.765 57.574V57.5799Z" fill="#BF83B3"/>
<path fill-rule="evenodd" clip-rule="evenodd" d="M102.743 55.0095C103.095 55.3617 103.323 55.8333 103.41 56.305L103.632 57.6124L104.219 61.0152C104.237 61.1346 104.126 61.1943 104.034 61.1108L101.409 58.7765L100.384 57.8631C100.032 57.5527 99.7538 57.1288 99.6488 56.6751C99.4265 55.7259 99.9885 55.3199 100.705 54.9498C101.421 54.5797 102.014 54.2871 102.737 55.0095H102.743Z" fill="#BF83B3"/>
<path fill-rule="evenodd" clip-rule="evenodd" d="M111.289 53.2204C111.178 53.9845 110.782 54.7248 110.245 55.286L108.763 56.8262L104.909 60.838C104.774 60.9813 104.588 60.8977 104.607 60.7067L105.101 55.2561L105.298 53.1249C105.366 52.3965 105.644 51.6443 106.132 51.0772C107.151 49.8951 108.22 50.1817 109.399 50.6891C110.579 51.1966 111.524 51.6384 111.289 53.2204V53.2204Z" fill="#BF83B3"/>
<path fill-rule="evenodd" clip-rule="evenodd" d="M119.152 58.808C118.288 59.3632 117.219 59.7154 116.2 59.8169L113.409 60.0975L106.14 60.8258C105.887 60.8497 105.807 60.6587 106.017 60.5154L111.908 56.3484L114.212 54.7186C115.002 54.1634 115.984 53.7276 116.966 53.5903C119.01 53.2978 119.622 54.2529 120.104 55.4589C120.585 56.6648 120.931 57.6677 119.146 58.814L119.152 58.808Z" fill="#BF83B3"/>
<path fill-rule="evenodd" clip-rule="evenodd" d="M115.1 62.8098C114.483 62.3143 113.686 62.0158 112.896 61.9502L110.728 61.7651L105.089 61.2815C104.892 61.2636 104.805 61.4427 104.954 61.574L109.097 65.2993L110.716 66.7559C111.271 67.2515 111.994 67.6335 112.754 67.735C114.328 67.9559 114.927 67.0485 115.452 65.9082C115.977 64.768 116.372 63.8307 115.1 62.8039V62.8098Z" fill="#BF83B3"/>
<path fill-rule="evenodd" clip-rule="evenodd" d="M107.517 67.0125C107.536 66.5229 107.381 66.0214 107.11 65.6155L106.369 64.4991L104.448 61.5918C104.38 61.4903 104.256 61.5201 104.244 61.6395L103.917 65.0722L103.787 66.4155C103.744 66.8751 103.83 67.3707 104.065 67.7766C104.559 68.6243 105.257 68.5587 106.047 68.3736C106.838 68.1885 107.474 68.0154 107.517 67.0125V67.0125Z" fill="#BF83B3"/>
<path fill-rule="evenodd" clip-rule="evenodd" d="M137.288 57.6988C137.795 58.0271 138.196 58.5286 138.418 59.0659L139.03 60.5524L140.629 64.4269C140.685 64.5642 140.567 64.6597 140.438 64.5881L136.714 62.4747L135.262 61.6509C134.768 61.3703 134.324 60.9404 134.077 60.427C133.564 59.3584 134.12 58.7435 134.867 58.1226C135.614 57.5018 136.238 57.0182 137.288 57.6928V57.6988Z" fill="#BF83B3"/>
<path fill-rule="evenodd" clip-rule="evenodd" d="M146.923 53.4623C146.99 54.3936 146.725 55.3667 146.237 56.1607L144.897 58.3457L141.408 64.047C141.284 64.25 141.043 64.1962 141.012 63.9694L140.154 57.4024L139.82 54.8354C139.703 53.9578 139.833 53.0026 140.259 52.2086C141.148 50.5549 142.495 50.6325 144.02 50.937C145.545 51.2415 146.787 51.534 146.929 53.4623H146.923Z" fill="#BF83B3"/>
<path fill-rule="evenodd" clip-rule="evenodd" d="M157.699 58.1232C156.822 58.9948 155.649 59.6754 154.476 60.0455L151.252 61.0664L142.853 63.7289C142.556 63.8245 142.414 63.6155 142.624 63.3887L148.485 57.0008L150.776 54.5054C151.561 53.6517 152.611 52.8935 153.735 52.4876C156.075 51.6339 157.051 52.607 157.94 53.9203C158.829 55.2337 159.509 56.3262 157.699 58.1232V58.1232Z" fill="#BF83B3"/>
<path fill-rule="evenodd" clip-rule="evenodd" d="M153.978 63.8474C153.12 63.4175 152.095 63.2623 151.144 63.3817L148.538 63.7041L141.738 64.5279C141.497 64.5578 141.448 64.7906 141.658 64.91L147.543 68.289L149.847 69.6083C150.631 70.0621 151.588 70.3247 152.515 70.265C154.435 70.1337 154.905 68.9158 155.22 67.4353C155.535 65.9547 155.757 64.7488 153.985 63.8533L153.978 63.8474Z" fill="#BF83B3"/>
<path fill-rule="evenodd" clip-rule="evenodd" d="M146.116 70.7053C146.012 70.1262 145.69 69.571 145.264 69.1591L144.097 68.0248L141.052 65.0637C140.947 64.9622 140.805 65.0279 140.824 65.1712L141.343 69.3143L141.546 70.9322C141.614 71.4874 141.849 72.0486 142.232 72.4724C143.041 73.35 143.85 73.1052 144.733 72.6873C145.616 72.2694 146.326 71.9112 146.104 70.7113L146.116 70.7053Z" fill="#BF83B3"/>
<path fill-rule="evenodd" clip-rule="evenodd" d="M128.506 84.5247C128.055 84.7516 127.517 84.8352 127.017 84.7755L125.646 84.6143L122.077 84.1964C121.953 84.1845 121.922 84.0591 122.033 83.9934L125.115 82.2084L126.319 81.5099C126.733 81.2711 127.233 81.1278 127.715 81.1637C128.722 81.2293 128.969 81.8681 129.142 82.6442C129.315 83.4203 129.426 84.0531 128.499 84.5247H128.506Z" fill="#BF83B3"/>
<path fill-rule="evenodd" clip-rule="evenodd" d="M127.855 93.0211C127.12 92.6987 126.496 92.1196 126.089 91.4569L124.971 89.6361L122.062 84.896C121.957 84.7288 122.093 84.5796 122.278 84.6512L127.583 86.6691L129.658 87.4571C130.368 87.7257 131.035 88.1974 131.468 88.8182C132.363 90.1077 131.77 91.0271 130.924 91.9823C130.103 92.9136 129.368 93.6957 127.855 93.027V93.0211Z" fill="#BF83B3"/>
<path fill-rule="evenodd" clip-rule="evenodd" d="M120.033 98.7621C119.724 97.795 119.681 96.6965 119.872 95.7174L120.391 93.031L121.737 86.0402C121.786 85.7954 121.996 85.7775 122.083 86.0103L124.566 92.7026L125.535 95.3174C125.869 96.2129 126.017 97.2577 125.881 98.2129C125.591 100.207 124.467 100.505 123.12 100.607C121.774 100.708 120.681 100.75 120.039 98.7561L120.033 98.7621Z" fill="#BF83B3"/>
<path fill-rule="evenodd" clip-rule="evenodd" d="M117.191 93.8401C117.858 93.4043 118.389 92.7416 118.679 92.0252L119.482 90.0551L121.576 84.927C121.65 84.7479 121.495 84.6165 121.322 84.718L116.419 87.5239L114.504 88.6224C113.85 88.9985 113.263 89.5656 112.942 90.2402C112.275 91.6491 113.01 92.467 113.998 93.2789C114.986 94.0908 115.814 94.7296 117.197 93.8401H117.191Z" fill="#BF83B3"/>
<path fill-rule="evenodd" clip-rule="evenodd" d="M115.154 85.5565C115.635 85.7117 116.179 85.7117 116.661 85.5744L117.988 85.2042L121.441 84.2431C121.564 84.2073 121.57 84.0819 121.453 84.0401L118.118 82.7566L116.815 82.2551C116.37 82.082 115.852 82.0223 115.376 82.1237C114.388 82.3446 114.252 83.0133 114.215 83.8013C114.178 84.5893 114.166 85.2341 115.16 85.5624L115.154 85.5565Z" fill="#BF83B3"/>
<path d="M159.782 59.6866C152.939 65.4765 144.956 68.7403 136.629 69.897C142.163 70.6348 147.541 72.473 151.961 75.8181C158.525 80.8389 161.998 89.2548 161.039 97.2455C160.585 85.2782 153.671 75.9619 141.858 72.1792C139.202 71.2913 136.467 70.6786 133.687 70.2284C123.592 71.0412 113.139 68.8841 103.724 64.5198C106.588 66.927 109.297 69.5156 111.779 72.273C119.866 81.2953 125.749 92.1997 128.529 103.836C129.313 107.143 129.89 110.501 130.007 113.89C129.825 112.208 129.508 110.545 129.138 108.9C124.719 89.211 111.876 71.7165 94.5096 60.6558C94.2504 60.4744 93.7061 60.1243 93.434 59.968C92.3648 59.3365 91.2114 58.5924 90.1357 57.9859C89.4099 57.592 87.4595 56.5166 86.7532 56.1352C86.1829 55.8601 85.0295 55.2786 84.4593 54.9972C58.0666 42.661 26.3927 45.6872 0 56.7042C19.9517 46.5125 44.8216 42.1483 67.3458 46.7626C78.6209 45.3683 89.7987 41.3167 97.9894 33.5948C107.333 24.835 110.69 12.2737 111.195 0C111.668 6.21501 111.118 12.5676 109.245 18.6263C104.003 36.2146 86.9735 46.0436 68.9399 47.1065C75.9835 48.6884 82.7745 51.1644 89.0989 54.6346C91.1336 55.7225 93.4016 57.0918 95.3455 58.3111C96.0713 58.805 97.8792 60.0305 98.6114 60.5245C99.8556 61.4248 101.074 62.3627 102.273 63.3256C120.468 70.6223 141.528 71.6102 157.864 59.4615C163.54 55.3286 168.258 50.0952 172.346 44.4742C169.094 50.164 164.895 55.4349 159.788 59.6991L159.782 59.6866Z" fill="#BF83B3"/>
<path d="M25.0178 88.3477V87.9277C22.5878 87.5077 22.4078 87.2077 22.3778 84.2077L22.2878 72.7777C22.2878 69.9577 22.5278 69.7177 25.0178 69.2977V68.8477H19.6778L12.9878 83.3077L6.62777 68.8477H1.16777V69.2977C3.62777 69.5677 3.98777 70.5577 3.95777 71.4877C3.26777 83.0677 3.17777 84.7177 3.02777 85.7977C2.84777 87.1177 2.27777 87.5977 0.357773 87.9277V88.3477H7.22777V87.9277C5.06777 87.5377 4.34777 87.1777 4.31777 85.7377C4.28777 84.6577 4.31777 81.8977 4.73777 71.9377C7.37777 78.2377 11.0078 87.1177 11.4878 88.3477H11.8778C12.3878 87.0577 16.9178 76.8277 19.2878 71.4577L19.1978 84.2077C19.1678 87.2677 19.0478 87.5077 16.8278 87.9277V88.3477H25.0178ZM46.0993 68.8477H39.9793V69.2977C42.3493 69.7477 42.4093 70.1377 41.8093 71.4277C40.9693 73.2577 39.1993 76.7377 38.2093 78.7177C37.0993 76.5577 35.5093 73.5577 34.2493 71.0977C33.7093 69.9877 33.7993 69.7177 35.7493 69.2977V68.8477H28.0693V69.2977C29.7793 69.6277 30.0793 69.8677 31.3393 72.1177C32.7493 74.6677 34.4893 77.9377 35.0893 79.2277C35.3593 79.7677 35.4493 80.1277 35.4493 80.6977V84.4177C35.4493 87.2677 35.1493 87.5677 32.8693 87.9277V88.3477H41.2693V87.9277C38.8693 87.4777 38.6293 87.3277 38.6293 84.4177L38.6593 80.2777C38.6593 79.7377 38.7793 79.4077 38.9893 78.9877C40.3093 76.3777 41.4793 74.0977 42.8293 71.7277C43.7893 70.0477 44.1193 69.6577 46.0993 69.2977V68.8477ZM12.1178 98.9577C11.9078 97.4577 11.7278 95.9577 11.6078 94.8777C10.9778 94.7877 9.68777 94.4277 7.85777 94.4277C3.92777 94.4277 1.70777 96.7377 1.70777 99.7977C1.70777 102.978 4.25777 104.448 6.53777 105.858C8.66777 107.208 9.89777 108.408 9.89777 110.448C9.89777 112.548 8.84777 114.108 6.65777 114.108C3.71777 114.108 2.24777 111.558 1.61777 109.548L1.13777 109.638C1.19777 110.238 1.67777 113.538 1.82777 114.078C3.23777 114.468 4.55777 114.798 6.26777 114.798C10.0178 114.798 12.8978 112.428 12.8978 109.008C12.8978 105.768 10.4678 104.268 7.97777 102.768C5.54777 101.328 4.37777 100.398 4.37777 98.3877C4.37777 96.4677 5.42777 95.1477 7.40777 95.1477C9.86777 95.1477 11.0078 97.0977 11.6378 99.0477L12.1178 98.9577ZM36.4759 94.8477H29.8159V95.2977C32.2459 95.6277 32.7259 96.0477 32.8459 97.5477C32.9059 98.4777 32.9659 99.5577 32.9659 101.958V105.438C32.9659 110.688 31.7959 113.268 27.8059 113.268C24.1459 113.268 22.3459 110.928 22.3459 106.608V98.8677C22.3459 95.9577 22.5259 95.7477 24.7459 95.2977V94.8477H16.7659V95.2977C18.9559 95.7177 19.1959 95.9577 19.1959 98.8677V106.668C19.1959 109.878 19.8259 111.858 21.5359 113.268C22.8559 114.348 24.7459 114.768 26.5459 114.768C28.7959 114.768 30.6559 114.228 31.9459 112.848C33.6259 111.078 33.9559 108.648 33.9559 105.618V101.958C33.9559 99.5577 34.0159 98.4477 34.0759 97.6077C34.1659 96.3777 34.3459 95.7477 36.4759 95.2977V94.8477ZM48.4274 114.348V113.928C46.1774 113.478 45.9074 113.328 45.9074 110.658V98.5377C45.9074 95.8377 46.1774 95.7177 48.4274 95.2977V94.8477H40.2974V95.2977C42.5174 95.6577 42.7574 95.8677 42.7574 98.5377V110.658C42.7574 113.298 42.5174 113.538 40.2974 113.928V114.348H48.4274ZM69.1061 99.1677C68.9261 97.5777 68.8661 95.5077 68.8661 94.2477H68.4761C68.0261 94.7577 67.6061 94.8477 66.7961 94.8477H54.5861C53.6561 94.8477 53.2661 94.8477 52.8161 94.2477H52.4261C52.3661 95.7777 52.1861 97.6977 52.0361 99.2577H52.5461C52.8761 98.2377 53.2661 97.3077 53.7161 96.7077C54.1361 96.1077 54.4661 95.6877 55.8761 95.6877H58.9961V110.808C58.9961 113.298 58.7261 113.448 56.3861 113.928V114.348H64.8461V113.928C62.4161 113.538 62.1461 113.268 62.1461 110.808V95.6877H64.8761C66.6461 95.6877 66.9461 95.9577 67.4861 96.7377C67.9361 97.3077 68.3261 98.1777 68.6261 99.2277L69.1061 99.1677ZM87.7982 109.728C87.3482 110.778 86.9282 111.678 86.4182 112.278C85.6682 113.208 85.2482 113.508 83.5982 113.508H81.4082C79.6082 113.478 79.0082 113.208 79.0082 111.048V104.508H82.2482C84.4382 104.508 84.5582 105.198 85.0082 107.028H85.4582V101.088H85.0082C84.6782 102.858 84.4682 103.608 82.2182 103.608H79.0082V96.5277C79.0082 95.8377 79.1282 95.7177 79.8182 95.7177H82.4282C84.1982 95.7177 84.7382 95.8977 85.3082 96.6177C85.8182 97.3077 86.2382 98.3877 86.4482 99.1377L86.9282 99.0477C86.7782 97.9077 86.6582 95.8977 86.6582 94.7877C86.2982 94.8477 85.2182 94.8477 82.3982 94.8477H73.5182V95.2977C75.6782 95.6577 75.8582 95.8377 75.8582 98.4777V110.808C75.8582 113.388 75.6482 113.508 73.0682 113.928V114.348H87.3482C87.5282 113.568 88.0682 110.838 88.2182 109.818L87.7982 109.728ZM103.893 98.9577C103.683 97.4577 103.503 95.9577 103.383 94.8777C102.753 94.7877 101.463 94.4277 99.6332 94.4277C95.7032 94.4277 93.4832 96.7377 93.4832 99.7977C93.4832 102.978 96.0332 104.448 98.3132 105.858C100.443 107.208 101.673 108.408 101.673 110.448C101.673 112.548 100.623 114.108 98.4332 114.108C95.4932 114.108 94.0232 111.558 93.3932 109.548L92.9132 109.638C92.9732 110.238 93.4532 113.538 93.6032 114.078C95.0132 114.468 96.3332 114.798 98.0432 114.798C101.793 114.798 104.673 112.428 104.673 109.008C104.673 105.768 102.243 104.268 99.7532 102.768C97.3232 101.328 96.1532 100.398 96.1532 98.3877C96.1532 96.4677 97.2032 95.1477 99.1832 95.1477C101.643 95.1477 102.783 97.0977 103.413 99.0477L103.893 98.9577Z" fill="#F4F4F4"/>
<path d="M3.58877 126.91C3.80411 126.944 3.99961 127.032 4.17527 127.174C4.35661 127.316 4.49827 127.491 4.60027 127.701C4.70794 127.911 4.76177 128.134 4.76177 128.372C4.76177 128.673 4.68527 128.945 4.53227 129.188C4.37927 129.426 4.15544 129.616 3.86077 129.758C3.57177 129.894 3.22894 129.962 2.83227 129.962H0.622273V124.037H2.74727C3.14961 124.037 3.49244 124.105 3.77577 124.241C4.05911 124.372 4.27161 124.55 4.41327 124.777C4.55494 125.004 4.62577 125.259 4.62577 125.542C4.62577 125.893 4.52944 126.185 4.33677 126.417C4.14977 126.644 3.90044 126.808 3.58877 126.91ZM1.39577 126.596H2.69627C3.05894 126.596 3.33944 126.511 3.53777 126.341C3.73611 126.171 3.83527 125.936 3.83527 125.635C3.83527 125.335 3.73611 125.1 3.53777 124.93C3.33944 124.76 3.05327 124.675 2.67927 124.675H1.39577V126.596ZM2.76427 129.324C3.14961 129.324 3.44994 129.234 3.66527 129.052C3.88061 128.871 3.98827 128.619 3.98827 128.296C3.98827 127.967 3.87494 127.709 3.64827 127.522C3.42161 127.33 3.11844 127.233 2.73877 127.233H1.39577V129.324H2.76427ZM12.7032 124.037L10.7737 127.726V129.962H10.0002V127.726L8.06216 124.037H8.92066L10.3827 127.038L11.8447 124.037H12.7032ZM22.6786 129.333H24.7526V129.962H21.9051V124.037H22.6786V129.333ZM32.4761 128.644H29.8921L29.4161 129.962H28.6001L30.7421 124.071H31.6346L33.7681 129.962H32.9521L32.4761 128.644ZM32.2551 128.015L31.1841 125.023L30.1131 128.015H32.2551ZM43.4787 126.995C43.4787 126.417 43.6091 125.899 43.8697 125.44C44.1304 124.975 44.4846 124.613 44.9322 124.352C45.3856 124.091 45.8871 123.961 46.4367 123.961C47.0827 123.961 47.6466 124.117 48.1282 124.428C48.6099 124.74 48.9612 125.182 49.1822 125.754H48.2557C48.0914 125.397 47.8534 125.123 47.5417 124.93C47.2357 124.737 46.8674 124.641 46.4367 124.641C46.0231 124.641 45.6519 124.737 45.3232 124.93C44.9946 125.123 44.7367 125.397 44.5497 125.754C44.3627 126.106 44.2692 126.519 44.2692 126.995C44.2692 127.466 44.3627 127.879 44.5497 128.236C44.7367 128.588 44.9946 128.86 45.3232 129.052C45.6519 129.245 46.0231 129.341 46.4367 129.341C46.8674 129.341 47.2357 129.248 47.5417 129.061C47.8534 128.868 48.0914 128.593 48.2557 128.236H49.1822C48.9612 128.803 48.6099 129.242 48.1282 129.554C47.6466 129.86 47.0827 130.013 46.4367 130.013C45.8871 130.013 45.3856 129.885 44.9322 129.63C44.4846 129.37 44.1304 129.01 43.8697 128.551C43.6091 128.092 43.4787 127.573 43.4787 126.995ZM56.4197 130.021C55.87 130.021 55.3685 129.894 54.9152 129.639C54.4618 129.378 54.102 129.018 53.8357 128.559C53.575 128.095 53.4447 127.573 53.4447 126.995C53.4447 126.417 53.575 125.899 53.8357 125.44C54.102 124.975 54.4618 124.615 54.9152 124.36C55.3685 124.1 55.87 123.969 56.4197 123.969C56.975 123.969 57.4793 124.1 57.9327 124.36C58.386 124.615 58.743 124.972 59.0037 125.431C59.2643 125.89 59.3947 126.412 59.3947 126.995C59.3947 127.579 59.2643 128.1 59.0037 128.559C58.743 129.018 58.386 129.378 57.9327 129.639C57.4793 129.894 56.975 130.021 56.4197 130.021ZM56.4197 129.35C56.8333 129.35 57.2045 129.254 57.5332 129.061C57.8675 128.868 58.1282 128.593 58.3152 128.236C58.5078 127.879 58.6042 127.466 58.6042 126.995C58.6042 126.519 58.5078 126.106 58.3152 125.754C58.1282 125.397 57.8703 125.123 57.5417 124.93C57.213 124.737 56.839 124.641 56.4197 124.641C56.0003 124.641 55.6263 124.737 55.2977 124.93C54.969 125.123 54.7083 125.397 54.5157 125.754C54.3287 126.106 54.2352 126.519 54.2352 126.995C54.2352 127.466 54.3287 127.879 54.5157 128.236C54.7083 128.593 54.969 128.868 55.2977 129.061C55.632 129.254 56.006 129.35 56.4197 129.35ZM68.4738 129.962H67.7003L64.5893 125.244V129.962H63.8158V124.029H64.5893L67.7003 128.738V124.029H68.4738V129.962ZM75.0368 124.037C75.6828 124.037 76.241 124.159 76.7113 124.403C77.1873 124.641 77.55 124.984 77.7993 125.431C78.0543 125.879 78.1818 126.406 78.1818 127.012C78.1818 127.619 78.0543 128.146 77.7993 128.593C77.55 129.035 77.1873 129.375 76.7113 129.613C76.241 129.846 75.6828 129.962 75.0368 129.962H73.1923V124.037H75.0368ZM75.0368 129.324C75.8018 129.324 76.3855 129.123 76.7878 128.721C77.1902 128.313 77.3913 127.743 77.3913 127.012C77.3913 126.276 77.1873 125.701 76.7793 125.287C76.377 124.873 75.7962 124.666 75.0368 124.666H73.9658V129.324H75.0368ZM83.3756 124.666V126.647H85.5346V127.284H83.3756V129.324H85.7896V129.962H82.6021V124.029H85.7896V124.666H83.3756ZM92.2385 130.021C91.8475 130.021 91.4962 129.953 91.1845 129.817C90.8785 129.676 90.6377 129.483 90.462 129.239C90.2864 128.99 90.1957 128.704 90.19 128.381H91.0145C91.0429 128.659 91.1562 128.894 91.3545 129.086C91.5585 129.273 91.8532 129.367 92.2385 129.367C92.6069 129.367 92.8959 129.276 93.1055 129.095C93.3209 128.908 93.4285 128.67 93.4285 128.381C93.4285 128.154 93.3662 127.97 93.2415 127.828C93.1169 127.687 92.961 127.579 92.774 127.505C92.587 127.432 92.3349 127.352 92.0175 127.267C91.6265 127.165 91.312 127.063 91.074 126.961C90.8417 126.859 90.6405 126.701 90.4705 126.485C90.3062 126.264 90.224 125.97 90.224 125.601C90.224 125.278 90.3062 124.992 90.4705 124.743C90.6349 124.494 90.8644 124.301 91.159 124.165C91.4594 124.029 91.8022 123.961 92.1875 123.961C92.7429 123.961 93.1962 124.1 93.5475 124.377C93.9045 124.655 94.1057 125.023 94.151 125.482H93.301C93.2727 125.256 93.1537 125.057 92.944 124.887C92.7344 124.712 92.4567 124.624 92.111 124.624C91.788 124.624 91.5245 124.709 91.3205 124.879C91.1165 125.043 91.0145 125.276 91.0145 125.576C91.0145 125.791 91.074 125.967 91.193 126.103C91.3177 126.239 91.4679 126.344 91.6435 126.417C91.8249 126.485 92.077 126.565 92.4 126.655C92.791 126.763 93.1055 126.871 93.3435 126.978C93.5815 127.08 93.7855 127.242 93.9555 127.463C94.1255 127.678 94.2105 127.973 94.2105 128.347C94.2105 128.636 94.134 128.908 93.981 129.163C93.828 129.418 93.6014 129.625 93.301 129.783C93.0007 129.942 92.6465 130.021 92.2385 130.021ZM102.251 128.644H99.6668L99.1908 129.962H98.3748L100.517 124.071H101.409L103.543 129.962H102.727L102.251 128.644ZM102.03 128.015L100.959 125.023L99.8878 128.015H102.03Z" fill="#F4F4F4"/>
</svg>
