<svg width="181" height="131" viewBox="0 0 181 131" fill="none" xmlns="http://www.w3.org/2000/svg">
<path fill-rule="evenodd" clip-rule="evenodd" d="M38.5527 38.8748C39.0406 39.1554 39.4358 39.6032 39.6705 40.0927L40.3128 41.4479L41.9926 44.9701C42.0544 45.0955 41.9494 45.191 41.8197 45.1254L38.2563 43.3403L36.8667 42.6419C36.3912 42.4031 35.9589 42.027 35.7057 41.5613C35.1746 40.5942 35.6625 39.9972 36.3233 39.3823C36.9841 38.7674 37.5399 38.2898 38.5465 38.8689L38.5527 38.8748Z" fill="#BF83B3"/>
<path fill-rule="evenodd" clip-rule="evenodd" d="M47.2838 34.4861C47.395 35.3518 47.1974 36.2653 46.7836 37.0295L45.6473 39.1251L42.6953 44.5821C42.5903 44.7732 42.3618 44.7433 42.3247 44.5284L41.1946 38.4684L40.7561 36.0981C40.6079 35.2861 40.6758 34.3966 41.034 33.6383C41.7751 32.0621 43.0288 32.0681 44.4615 32.283C45.8943 32.498 47.0615 32.7069 47.29 34.4921L47.2838 34.4861Z" fill="#BF83B3"/>
<path fill-rule="evenodd" clip-rule="evenodd" d="M57.5301 38.3073C56.7581 39.155 55.7021 39.8416 54.6337 40.2416L51.6878 41.34L44.0238 44.2116C43.752 44.3131 43.61 44.128 43.7953 43.9071L48.9211 37.7043L50.9282 35.2805C51.6137 34.4507 52.5524 33.6985 53.5714 33.2627C55.7021 32.3553 56.6593 33.2209 57.5486 34.391C58.4379 35.5611 59.1234 36.5521 57.5362 38.3073H57.5301Z" fill="#BF83B3"/>
<path fill-rule="evenodd" clip-rule="evenodd" d="M54.353 43.805C53.5316 43.4408 52.5743 43.3513 51.6974 43.5005L49.2889 43.9184L43.0143 45.005C42.792 45.0408 42.7611 45.2617 42.9587 45.3632L48.5972 48.2228L50.8019 49.3391C51.5554 49.7212 52.457 49.9242 53.3093 49.8227C55.0879 49.6078 55.4584 48.4556 55.6807 47.0706C55.9031 45.6855 56.0451 44.5513 54.353 43.805Z" fill="#BF83B3"/>
<path fill-rule="evenodd" clip-rule="evenodd" d="M47.4006 50.5391C47.271 50.0078 46.9498 49.5063 46.536 49.1422L45.3935 48.1452L42.423 45.5363C42.318 45.4468 42.1945 45.5125 42.213 45.6438L42.9047 49.4646L43.1765 50.957C43.2691 51.4705 43.5099 51.9779 43.8928 52.354C44.6895 53.1301 45.4244 52.8674 46.2273 52.4376C47.0301 52.0077 47.6662 51.6436 47.4006 50.5391Z" fill="#BF83B3"/>
<path fill-rule="evenodd" clip-rule="evenodd" d="M77.0925 44.8552C76.5737 45.3208 75.8759 45.6193 75.178 45.7149L73.2697 45.9775L68.2982 46.6581C68.1253 46.682 68.0389 46.5268 68.1624 46.4014L71.6517 42.915L73.0165 41.5538C73.4859 41.0882 74.1096 40.724 74.7704 40.5927C76.1538 40.33 76.7281 41.1061 77.2469 42.0911C77.7656 43.0761 78.1609 43.894 77.0863 44.8552H77.0925Z" fill="#BF83B3"/>
<path fill-rule="evenodd" clip-rule="evenodd" d="M79.4022 56.5447C78.2906 56.3656 77.2283 55.8044 76.4317 55.0522L74.2455 52.9866L68.5391 47.6077C68.3415 47.4167 68.4588 47.1659 68.7429 47.1958L76.654 48.0614L79.748 48.4017C80.8041 48.5152 81.8848 48.9211 82.6938 49.6017C84.3798 51.0285 83.929 52.4732 83.1509 54.0612C82.3727 55.6492 81.6934 56.9148 79.4022 56.5447Z" fill="#BF83B3"/>
<path fill-rule="evenodd" clip-rule="evenodd" d="M70.9986 67.0334C70.2204 65.8393 69.7511 64.3706 69.6399 62.9855L69.3311 59.1823L68.5221 49.2714C68.4912 48.9251 68.7753 48.8236 68.9791 49.1102L74.8337 57.2718L77.1187 60.46C77.903 61.5526 78.4959 62.9079 78.6688 64.2452C79.027 67.0394 77.6128 67.8335 75.8403 68.4425C74.0679 69.0514 72.5981 69.4932 70.9924 67.0275L70.9986 67.0334Z" fill="#BF83B3"/>
<path fill-rule="evenodd" clip-rule="evenodd" d="M65.3216 61.3953C66.0627 60.5774 66.5259 59.4967 66.6494 58.428L66.9953 55.4906L67.8969 47.8365C67.9278 47.5678 67.6684 47.4484 67.4708 47.6394L61.9065 53.1442L59.7326 55.2995C58.9915 56.0339 58.4172 57.0071 58.2319 58.034C57.8552 60.1714 59.1583 61.0132 60.7948 61.7655C62.4314 62.5178 63.7901 63.091 65.3216 61.4013V61.3953Z" fill="#BF83B3"/>
<path fill-rule="evenodd" clip-rule="evenodd" d="M59.4613 50.9221C60.1715 50.9639 60.9065 50.7729 61.5055 50.4206L63.1544 49.4535L67.4527 46.9461C67.6009 46.8566 67.5639 46.6894 67.391 46.6656L62.4072 46.0984L60.4618 45.8775C59.7948 45.7999 59.0723 45.9014 58.4732 46.2059C57.2257 46.8447 57.2875 47.7998 57.5345 48.8804C57.7815 49.961 58.0039 50.8326 59.4675 50.9221H59.4613Z" fill="#BF83B3"/>
<path fill-rule="evenodd" clip-rule="evenodd" d="M89.6246 32.2487C89.9211 32.6725 90.0693 33.2039 90.0631 33.7173L90.0446 35.1142L90.0013 38.7499C90.0013 38.8753 89.8717 38.9171 89.7914 38.8156L87.5187 35.9202L86.6294 34.7859C86.3268 34.3978 86.1168 33.9083 86.0921 33.4188C86.0489 32.3979 86.7035 32.0755 87.5187 31.8188C88.3339 31.5621 89.0009 31.3711 89.6123 32.2487H89.6246Z" fill="#BF83B3"/>
<path fill-rule="evenodd" clip-rule="evenodd" d="M98.839 31.9334C98.5734 32.7095 98.0238 33.402 97.3568 33.8856L95.5226 35.2169L90.7549 38.6854C90.5882 38.8048 90.4091 38.6854 90.4647 38.4944L92.0271 32.9304L92.6385 30.7573C92.8485 30.0171 93.2808 29.2887 93.8922 28.7873C95.1768 27.7425 96.2328 28.2321 97.3568 28.9723C98.4808 29.7126 99.3762 30.3394 98.8266 31.9334H98.839Z" fill="#BF83B3"/>
<path fill-rule="evenodd" clip-rule="evenodd" d="M105.911 39.1439C104.904 39.5618 103.731 39.7349 102.656 39.6573L99.7101 39.4424L92.0337 38.8932C91.762 38.8753 91.7187 38.6603 91.9658 38.5469L98.8764 35.2873L101.581 34.0157C102.508 33.5799 103.613 33.3113 104.657 33.3411C106.837 33.4008 107.282 34.5053 107.547 35.8425C107.813 37.1798 107.986 38.2783 105.911 39.1499V39.1439Z" fill="#BF83B3"/>
<path fill-rule="evenodd" clip-rule="evenodd" d="M100.945 42.561C100.401 41.9401 99.6293 41.4864 98.8203 41.2714L96.6094 40.6924L90.8536 39.176C90.6498 39.1223 90.5324 39.2954 90.656 39.4566L94.2379 44.0654L95.6398 45.8683C96.1215 46.4832 96.7946 47.0086 97.5604 47.2533C99.1538 47.7667 99.9443 46.9309 100.71 45.8444C101.476 44.7579 102.063 43.8505 100.945 42.5669V42.561Z" fill="#BF83B3"/>
<path fill-rule="evenodd" clip-rule="evenodd" d="M92.2615 45.5593C92.3727 45.0579 92.3109 44.5086 92.1071 44.043L91.5575 42.7535L90.1247 39.3924C90.0753 39.273 89.9394 39.2849 89.9024 39.4043L88.9019 42.9027L88.5129 44.2698C88.377 44.7355 88.3708 45.2668 88.5376 45.7265C88.8834 46.6936 89.6183 46.7533 90.4767 46.7056C91.3352 46.6578 92.0268 46.5921 92.2615 45.5593Z" fill="#BF83B3"/>
<path fill-rule="evenodd" clip-rule="evenodd" d="M106.022 19.5406C106.362 19.3914 106.763 19.3556 107.121 19.4272L108.115 19.6063L110.703 20.0779C110.796 20.0958 110.808 20.1854 110.728 20.2272L108.387 21.3913L107.473 21.845C107.158 22.0002 106.788 22.0838 106.436 22.0361C105.701 21.9405 105.553 21.4629 105.466 20.8898C105.38 20.3167 105.324 19.8451 106.028 19.5406H106.022Z" fill="#BF83B3"/>
<path fill-rule="evenodd" clip-rule="evenodd" d="M106.911 13.3569C107.43 13.6255 107.862 14.0793 108.128 14.5807L108.857 15.9658L110.759 19.5656C110.827 19.691 110.722 19.7985 110.586 19.7388L106.8 18.0194L105.324 17.3448C104.818 17.118 104.348 16.7419 104.07 16.2702C103.478 15.2852 103.959 14.6404 104.62 13.9778C105.281 13.3151 105.843 12.7957 106.917 13.3509L106.911 13.3569Z" fill="#BF83B3"/>
<path fill-rule="evenodd" clip-rule="evenodd" d="M112.914 9.50625C113.093 10.2286 113.068 11.0346 112.883 11.739L112.377 13.6792L111.055 18.7358C111.006 18.9149 110.851 18.9149 110.802 18.7358L109.314 13.727L108.733 11.7689C108.535 11.1002 108.474 10.3301 108.622 9.63759C108.931 8.19287 109.771 8.02571 110.759 8.0078C111.747 7.98989 112.556 8.0078 112.92 9.50028L112.914 9.50625Z" fill="#BF83B3"/>
<path fill-rule="evenodd" clip-rule="evenodd" d="M114.753 13.2358C114.24 13.5223 113.827 13.982 113.58 14.4954L112.9 15.8983L111.122 19.5579C111.06 19.6892 111.165 19.7907 111.301 19.7251L115.025 17.8923L116.482 17.1759C116.982 16.9311 117.433 16.5431 117.705 16.0595C118.261 15.0566 117.767 14.4297 117.081 13.785C116.396 13.1402 115.821 12.6388 114.765 13.2298L114.753 13.2358Z" fill="#BF83B3"/>
<path fill-rule="evenodd" clip-rule="evenodd" d="M115.841 19.3921C115.495 19.2548 115.1 19.2309 114.735 19.3085L113.747 19.5175L111.172 20.0667C111.079 20.0846 111.073 20.1801 111.154 20.2159L113.531 21.3084L114.464 21.7323C114.779 21.8756 115.155 21.9472 115.507 21.8935C116.242 21.7801 116.372 21.2965 116.44 20.7174C116.508 20.1383 116.545 19.6667 115.835 19.3861L115.841 19.3921Z" fill="#BF83B3"/>
<path fill-rule="evenodd" clip-rule="evenodd" d="M168.347 46.9929C168.421 47.3989 168.347 47.8347 168.174 48.2048L167.686 49.2197L166.42 51.8703C166.377 51.9659 166.266 51.9539 166.241 51.8524L165.562 49.0108L165.296 47.9003C165.204 47.5183 165.216 47.0944 165.37 46.7302C165.685 45.9661 166.278 45.9422 166.958 46.0079C167.637 46.0735 168.199 46.1512 168.347 46.9869V46.9929Z" fill="#BF83B3"/>
<path fill-rule="evenodd" clip-rule="evenodd" d="M175.208 49.6846C174.751 50.1682 174.115 50.5025 173.46 50.6458L171.669 51.0398L167.001 52.0666C166.834 52.1025 166.747 51.9592 166.852 51.8338L169.885 48.2519L171.07 46.8549C171.478 46.3773 172.04 45.9773 172.664 45.8102C173.961 45.452 174.566 46.1445 175.14 47.04C175.715 47.9354 176.159 48.6817 175.214 49.6787L175.208 49.6846Z" fill="#BF83B3"/>
<path fill-rule="evenodd" clip-rule="evenodd" d="M177.943 57.2168C177.067 57.2049 176.146 56.9541 175.387 56.5601L173.299 55.4676L167.859 52.6259C167.667 52.5244 167.71 52.3573 167.926 52.3513L174.102 52.1543L176.517 52.0767C177.344 52.0528 178.246 52.202 179 52.5543C180.574 53.2886 180.531 54.2378 180.272 55.3064C180.012 56.375 179.765 57.2287 177.95 57.2108L177.943 57.2168Z" fill="#BF83B3"/>
<path fill-rule="evenodd" clip-rule="evenodd" d="M173.144 58.1417C172.959 57.5149 172.545 56.9358 172.027 56.5239L170.606 55.3955L166.901 52.4583C166.771 52.3568 166.623 52.4404 166.66 52.6016L167.716 57.1149L168.13 58.876C168.272 59.479 168.593 60.076 169.068 60.4998C170.063 61.3834 170.927 61.0192 171.854 60.464C172.78 59.9088 173.521 59.4312 173.138 58.1357L173.144 58.1417Z" fill="#BF83B3"/>
<path fill-rule="evenodd" clip-rule="evenodd" d="M165.764 57.5858C166.018 57.2515 166.154 56.8336 166.166 56.4216L166.203 55.2993L166.296 52.38C166.296 52.2785 166.197 52.2427 166.129 52.3203L164.208 54.565L163.455 55.4426C163.195 55.7411 163.01 56.1291 162.979 56.5231C162.905 57.341 163.424 57.6216 164.066 57.8544C164.708 58.0873 165.24 58.2604 165.764 57.5798V57.5858Z" fill="#BF83B3"/>
<path fill-rule="evenodd" clip-rule="evenodd" d="M102.742 55.0153C103.094 55.3676 103.323 55.8392 103.409 56.3108L103.632 57.6182L104.218 61.0211C104.237 61.1405 104.126 61.2002 104.033 61.1166L101.408 58.7824L100.383 57.869C100.031 57.5585 99.7533 57.1347 99.6484 56.681C99.426 55.7317 99.988 55.3258 100.704 54.9556C101.421 54.5855 102.014 54.293 102.736 55.0153H102.742Z" fill="#BF83B3"/>
<path fill-rule="evenodd" clip-rule="evenodd" d="M111.289 53.2262C111.178 53.9904 110.783 54.7307 110.246 55.2918L108.764 56.8321L104.91 60.8439C104.774 60.9872 104.589 60.9036 104.607 60.7125L105.101 55.262L105.299 53.1307C105.367 52.4024 105.645 51.6502 106.133 51.083C107.152 49.901 108.22 50.1876 109.4 50.695C110.579 51.2024 111.524 51.6442 111.289 53.2262Z" fill="#BF83B3"/>
<path fill-rule="evenodd" clip-rule="evenodd" d="M119.152 58.8139C118.288 59.3691 117.219 59.7213 116.2 59.8228L113.409 60.1034L106.14 60.8317C105.887 60.8556 105.807 60.6645 106.017 60.5213L111.908 56.3542L114.212 54.7245C115.002 54.1692 115.984 53.7334 116.966 53.5961C119.01 53.3036 119.622 54.2588 120.104 55.4647C120.585 56.6707 120.931 57.6736 119.146 58.8198L119.152 58.8139Z" fill="#BF83B3"/>
<path fill-rule="evenodd" clip-rule="evenodd" d="M115.101 62.8167C114.484 62.3212 113.687 62.0227 112.897 61.957L110.729 61.7719L105.09 61.2884C104.893 61.2704 104.806 61.4495 104.955 61.5809L109.098 65.3061L110.717 66.7628C111.272 67.2583 111.995 67.6404 112.754 67.7419C114.329 67.9627 114.928 67.0553 115.453 65.9151C115.978 64.7748 116.373 63.8375 115.101 62.8107V62.8167Z" fill="#BF83B3"/>
<path fill-rule="evenodd" clip-rule="evenodd" d="M107.517 67.0193C107.536 66.5298 107.382 66.0283 107.11 65.6223L106.369 64.5059L104.448 61.5986C104.38 61.4971 104.257 61.5269 104.244 61.6463L103.917 65.0791L103.787 66.4223C103.744 66.882 103.831 67.3775 104.065 67.7834C104.559 68.6312 105.257 68.5655 106.048 68.3804C106.838 68.1954 107.474 68.0222 107.517 67.0193Z" fill="#BF83B3"/>
<path fill-rule="evenodd" clip-rule="evenodd" d="M137.29 57.7066C137.796 58.0349 138.198 58.5364 138.42 59.0737L139.032 60.5602L140.631 64.4347C140.687 64.572 140.569 64.6675 140.44 64.5959L136.716 62.4825L135.264 61.6587C134.77 61.3781 134.326 60.9483 134.079 60.4348C133.566 59.3662 134.122 58.7513 134.869 58.1304C135.616 57.5096 136.24 57.026 137.29 57.7006V57.7066Z" fill="#BF83B3"/>
<path fill-rule="evenodd" clip-rule="evenodd" d="M146.924 53.4694C146.992 54.4007 146.726 55.3739 146.238 56.168L144.898 58.3532L141.409 64.055C141.285 64.2579 141.044 64.2042 141.014 63.9773L140.155 57.4098L139.822 54.8426C139.704 53.9649 139.834 53.0096 140.26 52.2156C141.149 50.5617 142.496 50.6394 144.021 50.9439C145.547 51.2483 146.788 51.5409 146.93 53.4694H146.924Z" fill="#BF83B3"/>
<path fill-rule="evenodd" clip-rule="evenodd" d="M157.701 58.13C156.824 59.0016 155.65 59.6822 154.477 60.0523L151.253 61.0732L142.854 63.7358C142.558 63.8313 142.416 63.6224 142.626 63.3955L148.486 57.0077L150.778 54.5122C151.562 53.6585 152.612 52.9004 153.736 52.4944C156.076 51.6407 157.052 52.6138 157.941 53.9272C158.831 55.2406 159.51 56.3331 157.701 58.13Z" fill="#BF83B3"/>
<path fill-rule="evenodd" clip-rule="evenodd" d="M153.978 63.8552C153.12 63.4253 152.095 63.2701 151.144 63.3895L148.538 63.7119L141.738 64.5357C141.497 64.5656 141.448 64.7984 141.658 64.9178L147.543 68.2968L149.847 69.6162C150.631 70.0699 151.588 70.3326 152.515 70.2729C154.435 70.1415 154.905 68.9236 155.22 67.4431C155.535 65.9626 155.757 64.7566 153.985 63.8611L153.978 63.8552Z" fill="#BF83B3"/>
<path fill-rule="evenodd" clip-rule="evenodd" d="M146.116 70.7131C146.011 70.134 145.69 69.5788 145.264 69.1669L144.096 68.0326L141.052 65.0715C140.947 64.9701 140.805 65.0357 140.823 65.179L141.342 69.3221L141.546 70.94C141.614 71.4952 141.848 72.0564 142.231 72.4802C143.04 73.3578 143.849 73.113 144.732 72.6952C145.616 72.2773 146.326 71.9191 146.103 70.7191L146.116 70.7131Z" fill="#BF83B3"/>
<path fill-rule="evenodd" clip-rule="evenodd" d="M128.508 84.5335C128.058 84.7604 127.52 84.844 127.02 84.7843L125.649 84.6231L122.08 84.2052C121.956 84.1932 121.925 84.0679 122.036 84.0022L125.118 82.2172L126.322 81.5187C126.736 81.2799 127.236 81.1366 127.718 81.1725C128.725 81.2381 128.972 81.8769 129.145 82.653C129.318 83.4291 129.429 84.0619 128.502 84.5335H128.508Z" fill="#BF83B3"/>
<path fill-rule="evenodd" clip-rule="evenodd" d="M127.858 93.0299C127.123 92.7075 126.5 92.1284 126.092 91.4657L124.974 89.6449L122.065 84.9048C121.96 84.7376 122.096 84.5884 122.282 84.66L127.587 86.6778L129.662 87.4659C130.372 87.7345 131.039 88.2061 131.471 88.827C132.367 90.1165 131.774 91.0359 130.928 91.9911C130.106 92.9224 129.371 93.7045 127.858 93.0358V93.0299Z" fill="#BF83B3"/>
<path fill-rule="evenodd" clip-rule="evenodd" d="M120.034 98.773C119.725 97.8058 119.682 96.7072 119.873 95.728L120.392 93.0413L121.738 86.05C121.788 85.8052 121.998 85.7873 122.084 86.0201L124.567 92.713L125.537 95.328C125.87 96.2236 126.018 97.2684 125.882 98.2237C125.592 100.218 124.468 100.516 123.122 100.618C121.776 100.719 120.682 100.761 120.04 98.767L120.034 98.773Z" fill="#BF83B3"/>
<path fill-rule="evenodd" clip-rule="evenodd" d="M117.193 93.8489C117.86 93.4131 118.391 92.7504 118.682 92.034L119.484 90.0639L121.578 84.9358C121.652 84.7567 121.498 84.6253 121.325 84.7268L116.421 87.5327L114.507 88.6311C113.852 89.0073 113.265 89.5744 112.944 90.249C112.277 91.6579 113.012 92.4758 114 93.2877C114.988 94.0996 115.816 94.7384 117.199 93.8489H117.193Z" fill="#BF83B3"/>
<path fill-rule="evenodd" clip-rule="evenodd" d="M115.155 85.5652C115.637 85.7205 116.181 85.7205 116.662 85.5832L117.99 85.213L121.442 84.2519C121.566 84.216 121.572 84.0907 121.455 84.0489L118.12 82.7653L116.817 82.2639C116.372 82.0907 115.853 82.031 115.378 82.1325C114.39 82.3534 114.254 83.0221 114.217 83.8101C114.18 84.5981 114.167 85.2429 115.162 85.5712L115.155 85.5652Z" fill="#BF83B3"/>
<path d="M159.782 59.6937C152.939 65.484 144.956 68.7481 136.629 69.9049C142.163 70.6428 147.541 72.4812 151.961 75.8265C158.525 80.8478 161.998 89.2644 161.039 97.2558C160.585 85.2874 153.671 75.9704 141.858 72.1873C139.202 71.2993 136.467 70.6865 133.687 70.2363C123.592 71.0492 113.139 68.8919 103.724 64.5273C106.588 66.9347 109.297 69.5235 111.779 72.2811C119.866 81.3042 125.749 92.2096 128.529 103.847C129.313 107.154 129.89 110.512 130.007 113.901C129.825 112.219 129.508 110.556 129.138 108.911C124.719 89.2206 111.876 71.7245 94.5096 60.6629C94.2504 60.4815 93.7061 60.1314 93.434 59.975C92.3648 59.3435 91.2114 58.5994 90.1357 57.9928C89.4099 57.5989 87.4595 56.5234 86.7532 56.1419C86.1829 55.8668 85.0295 55.2853 84.4593 55.0039C58.0666 42.6666 26.3927 45.6931 0 56.7109C19.9517 46.5185 44.8216 42.1538 67.3458 46.7686C78.6209 45.3742 89.7987 41.3222 97.9893 33.5996C107.333 24.8391 110.69 12.2767 111.195 0.00195312C111.668 6.21749 111.118 12.5706 109.245 18.6298C104.003 36.2197 86.9735 46.0495 68.9399 47.1125C75.9835 48.6945 82.7745 51.1707 89.0989 54.6412C91.1336 55.7292 93.4016 57.0986 95.3456 58.318C96.0713 58.812 97.8792 60.0376 98.6114 60.5316C99.8556 61.432 101.074 62.37 102.273 63.3329C120.468 70.6303 141.528 71.6182 157.864 59.4686C163.54 55.3353 168.258 50.1015 172.346 44.48C169.094 50.1703 164.895 55.4416 159.788 59.7062L159.782 59.6937Z" fill="#BF83B3"/>
<path d="M25.0183 88.3477V87.9277C22.5883 87.5077 22.4083 87.2077 22.3783 84.2077L22.2883 72.7777C22.2883 69.9577 22.5283 69.7177 25.0183 69.2977V68.8477H19.6783L12.9883 83.3077L6.62826 68.8477H1.16826V69.2977C3.62826 69.5677 3.98826 70.5577 3.95826 71.4877C3.26826 83.0677 3.17826 84.7177 3.02826 85.7977C2.84826 87.1177 2.27826 87.5977 0.358262 87.9277V88.3477H7.22826V87.9277C5.06826 87.5377 4.34826 87.1777 4.31826 85.7377C4.28826 84.6577 4.31826 81.8977 4.73826 71.9377C7.37826 78.2377 11.0083 87.1177 11.4883 88.3477H11.8783C12.3883 87.0577 16.9183 76.8277 19.2883 71.4577L19.1983 84.2077C19.1683 87.2677 19.0483 87.5077 16.8283 87.9277V88.3477H25.0183ZM46.0998 68.8477H39.9798V69.2977C42.3498 69.7477 42.4098 70.1377 41.8098 71.4277C40.9698 73.2577 39.1998 76.7377 38.2098 78.7177C37.0998 76.5577 35.5098 73.5577 34.2498 71.0977C33.7098 69.9877 33.7998 69.7177 35.7498 69.2977V68.8477H28.0698V69.2977C29.7798 69.6277 30.0798 69.8677 31.3398 72.1177C32.7498 74.6677 34.4898 77.9377 35.0898 79.2277C35.3598 79.7677 35.4498 80.1277 35.4498 80.6977V84.4177C35.4498 87.2677 35.1498 87.5677 32.8698 87.9277V88.3477H41.2698V87.9277C38.8698 87.4777 38.6298 87.3277 38.6298 84.4177L38.6598 80.2777C38.6598 79.7377 38.7798 79.4077 38.9898 78.9877C40.3098 76.3777 41.4798 74.0977 42.8298 71.7277C43.7898 70.0477 44.1198 69.6577 46.0998 69.2977V68.8477ZM12.1183 98.9577C11.9083 97.4577 11.7283 95.9577 11.6083 94.8777C10.9783 94.7877 9.68826 94.4277 7.85826 94.4277C3.92826 94.4277 1.70826 96.7377 1.70826 99.7977C1.70826 102.978 4.25826 104.448 6.53826 105.858C8.66826 107.208 9.89826 108.408 9.89826 110.448C9.89826 112.548 8.84826 114.108 6.65826 114.108C3.71826 114.108 2.24826 111.558 1.61826 109.548L1.13826 109.638C1.19826 110.238 1.67826 113.538 1.82826 114.078C3.23826 114.468 4.55826 114.798 6.26826 114.798C10.0183 114.798 12.8983 112.428 12.8983 109.008C12.8983 105.768 10.4683 104.268 7.97826 102.768C5.54826 101.328 4.37826 100.398 4.37826 98.3877C4.37826 96.4677 5.42826 95.1477 7.40826 95.1477C9.86826 95.1477 11.0083 97.0977 11.6383 99.0477L12.1183 98.9577ZM36.4764 94.8477H29.8164V95.2977C32.2464 95.6277 32.7264 96.0477 32.8464 97.5477C32.9064 98.4777 32.9664 99.5577 32.9664 101.958V105.438C32.9664 110.688 31.7964 113.268 27.8064 113.268C24.1464 113.268 22.3464 110.928 22.3464 106.608V98.8677C22.3464 95.9577 22.5264 95.7477 24.7464 95.2977V94.8477H16.7664V95.2977C18.9564 95.7177 19.1964 95.9577 19.1964 98.8677V106.668C19.1964 109.878 19.8264 111.858 21.5364 113.268C22.8564 114.348 24.7464 114.768 26.5464 114.768C28.7964 114.768 30.6564 114.228 31.9464 112.848C33.6264 111.078 33.9564 108.648 33.9564 105.618V101.958C33.9564 99.5577 34.0164 98.4477 34.0764 97.6077C34.1664 96.3777 34.3464 95.7477 36.4764 95.2977V94.8477ZM48.4279 114.348V113.928C46.1779 113.478 45.9079 113.328 45.9079 110.658V98.5377C45.9079 95.8377 46.1779 95.7177 48.4279 95.2977V94.8477H40.2979V95.2977C42.5179 95.6577 42.7579 95.8677 42.7579 98.5377V110.658C42.7579 113.298 42.5179 113.538 40.2979 113.928V114.348H48.4279ZM69.1065 99.1677C68.9265 97.5777 68.8665 95.5077 68.8665 94.2477H68.4765C68.0265 94.7577 67.6065 94.8477 66.7965 94.8477H54.5865C53.6565 94.8477 53.2665 94.8477 52.8165 94.2477H52.4265C52.3665 95.7777 52.1865 97.6977 52.0365 99.2577H52.5465C52.8765 98.2377 53.2665 97.3077 53.7165 96.7077C54.1365 96.1077 54.4665 95.6877 55.8765 95.6877H58.9965V110.808C58.9965 113.298 58.7265 113.448 56.3865 113.928V114.348H64.8465V113.928C62.4165 113.538 62.1465 113.268 62.1465 110.808V95.6877H64.8765C66.6465 95.6877 66.9465 95.9577 67.4865 96.7377C67.9365 97.3077 68.3265 98.1777 68.6265 99.2277L69.1065 99.1677ZM87.7987 109.728C87.3487 110.778 86.9287 111.678 86.4187 112.278C85.6687 113.208 85.2487 113.508 83.5987 113.508H81.4087C79.6087 113.478 79.0087 113.208 79.0087 111.048V104.508H82.2487C84.4387 104.508 84.5587 105.198 85.0087 107.028H85.4587V101.088H85.0087C84.6787 102.858 84.4687 103.608 82.2187 103.608H79.0087V96.5277C79.0087 95.8377 79.1287 95.7177 79.8187 95.7177H82.4287C84.1987 95.7177 84.7387 95.8977 85.3087 96.6177C85.8187 97.3077 86.2387 98.3877 86.4487 99.1377L86.9287 99.0477C86.7787 97.9077 86.6587 95.8977 86.6587 94.7877C86.2987 94.8477 85.2187 94.8477 82.3987 94.8477H73.5187V95.2977C75.6787 95.6577 75.8587 95.8377 75.8587 98.4777V110.808C75.8587 113.388 75.6487 113.508 73.0687 113.928V114.348H87.3487C87.5287 113.568 88.0687 110.838 88.2187 109.818L87.7987 109.728ZM103.894 98.9577C103.684 97.4577 103.504 95.9577 103.384 94.8777C102.754 94.7877 101.464 94.4277 99.6337 94.4277C95.7037 94.4277 93.4837 96.7377 93.4837 99.7977C93.4837 102.978 96.0337 104.448 98.3137 105.858C100.444 107.208 101.674 108.408 101.674 110.448C101.674 112.548 100.624 114.108 98.4337 114.108C95.4937 114.108 94.0237 111.558 93.3937 109.548L92.9137 109.638C92.9737 110.238 93.4537 113.538 93.6037 114.078C95.0137 114.468 96.3337 114.798 98.0437 114.798C101.794 114.798 104.674 112.428 104.674 109.008C104.674 105.768 102.244 104.268 99.7537 102.768C97.3237 101.328 96.1537 100.398 96.1537 98.3877C96.1537 96.4677 97.2037 95.1477 99.1837 95.1477C101.644 95.1477 102.784 97.0977 103.414 99.0477L103.894 98.9577Z" fill="#333333" fill-opacity="0.9"/>
<path d="M3.58926 126.91C3.8046 126.944 4.0001 127.032 4.17576 127.174C4.3571 127.316 4.49876 127.491 4.60076 127.701C4.70843 127.911 4.76226 128.134 4.76226 128.372C4.76226 128.673 4.68576 128.945 4.53276 129.188C4.37976 129.426 4.15593 129.616 3.86126 129.758C3.57226 129.894 3.22943 129.962 2.83276 129.962H0.622762V124.037H2.74776C3.1501 124.037 3.49293 124.105 3.77626 124.241C4.0596 124.372 4.2721 124.55 4.41376 124.777C4.55543 125.004 4.62626 125.259 4.62626 125.542C4.62626 125.893 4.52993 126.185 4.33726 126.417C4.15026 126.644 3.90093 126.808 3.58926 126.91ZM1.39626 126.596H2.69676C3.05943 126.596 3.33993 126.511 3.53826 126.341C3.7366 126.171 3.83576 125.936 3.83576 125.635C3.83576 125.335 3.7366 125.1 3.53826 124.93C3.33993 124.76 3.05376 124.675 2.67976 124.675H1.39626V126.596ZM2.76476 129.324C3.1501 129.324 3.45043 129.234 3.66576 129.052C3.8811 128.871 3.98876 128.619 3.98876 128.296C3.98876 127.967 3.87543 127.709 3.64876 127.522C3.4221 127.33 3.11893 127.233 2.73926 127.233H1.39626V129.324H2.76476ZM12.7037 124.037L10.7742 127.726V129.962H10.0007V127.726L8.06265 124.037H8.92115L10.3832 127.038L11.8452 124.037H12.7037ZM22.6791 129.333H24.7531V129.962H21.9056V124.037H22.6791V129.333ZM32.4766 128.644H29.8926L29.4166 129.962H28.6006L30.7426 124.071H31.6351L33.7686 129.962H32.9526L32.4766 128.644ZM32.2556 128.015L31.1846 125.023L30.1136 128.015H32.2556ZM43.4792 126.995C43.4792 126.417 43.6096 125.899 43.8702 125.44C44.1309 124.975 44.4851 124.613 44.9327 124.352C45.3861 124.091 45.8876 123.961 46.4372 123.961C47.0832 123.961 47.6471 124.117 48.1287 124.428C48.6104 124.74 48.9617 125.182 49.1827 125.754H48.2562C48.0919 125.397 47.8539 125.123 47.5422 124.93C47.2362 124.737 46.8679 124.641 46.4372 124.641C46.0236 124.641 45.6524 124.737 45.3237 124.93C44.9951 125.123 44.7372 125.397 44.5502 125.754C44.3632 126.106 44.2697 126.519 44.2697 126.995C44.2697 127.466 44.3632 127.879 44.5502 128.236C44.7372 128.588 44.9951 128.86 45.3237 129.052C45.6524 129.245 46.0236 129.341 46.4372 129.341C46.8679 129.341 47.2362 129.248 47.5422 129.061C47.8539 128.868 48.0919 128.593 48.2562 128.236H49.1827C48.9617 128.803 48.6104 129.242 48.1287 129.554C47.6471 129.86 47.0832 130.013 46.4372 130.013C45.8876 130.013 45.3861 129.885 44.9327 129.63C44.4851 129.37 44.1309 129.01 43.8702 128.551C43.6096 128.092 43.4792 127.573 43.4792 126.995ZM56.4202 130.021C55.8705 130.021 55.369 129.894 54.9157 129.639C54.4623 129.378 54.1025 129.018 53.8362 128.559C53.5755 128.095 53.4452 127.573 53.4452 126.995C53.4452 126.417 53.5755 125.899 53.8362 125.44C54.1025 124.975 54.4623 124.615 54.9157 124.36C55.369 124.1 55.8705 123.969 56.4202 123.969C56.9755 123.969 57.4798 124.1 57.9332 124.36C58.3865 124.615 58.7435 124.972 59.0042 125.431C59.2648 125.89 59.3952 126.412 59.3952 126.995C59.3952 127.579 59.2648 128.1 59.0042 128.559C58.7435 129.018 58.3865 129.378 57.9332 129.639C57.4798 129.894 56.9755 130.021 56.4202 130.021ZM56.4202 129.35C56.8338 129.35 57.205 129.254 57.5337 129.061C57.868 128.868 58.1287 128.593 58.3157 128.236C58.5083 127.879 58.6047 127.466 58.6047 126.995C58.6047 126.519 58.5083 126.106 58.3157 125.754C58.1287 125.397 57.8708 125.123 57.5422 124.93C57.2135 124.737 56.8395 124.641 56.4202 124.641C56.0008 124.641 55.6268 124.737 55.2982 124.93C54.9695 125.123 54.7088 125.397 54.5162 125.754C54.3292 126.106 54.2357 126.519 54.2357 126.995C54.2357 127.466 54.3292 127.879 54.5162 128.236C54.7088 128.593 54.9695 128.868 55.2982 129.061C55.6325 129.254 56.0065 129.35 56.4202 129.35ZM68.4743 129.962H67.7008L64.5898 125.244V129.962H63.8163V124.029H64.5898L67.7008 128.738V124.029H68.4743V129.962ZM75.0373 124.037C75.6833 124.037 76.2415 124.159 76.7118 124.403C77.1878 124.641 77.5505 124.984 77.7998 125.431C78.0548 125.879 78.1823 126.406 78.1823 127.012C78.1823 127.619 78.0548 128.146 77.7998 128.593C77.5505 129.035 77.1878 129.375 76.7118 129.613C76.2415 129.846 75.6833 129.962 75.0373 129.962H73.1928V124.037H75.0373ZM75.0373 129.324C75.8023 129.324 76.386 129.123 76.7883 128.721C77.1907 128.313 77.3918 127.743 77.3918 127.012C77.3918 126.276 77.1878 125.701 76.7798 125.287C76.3775 124.873 75.7967 124.666 75.0373 124.666H73.9663V129.324H75.0373ZM83.3761 124.666V126.647H85.5351V127.284H83.3761V129.324H85.7901V129.962H82.6026V124.029H85.7901V124.666H83.3761ZM92.239 130.021C91.848 130.021 91.4967 129.953 91.185 129.817C90.879 129.676 90.6382 129.483 90.4625 129.239C90.2868 128.99 90.1962 128.704 90.1905 128.381H91.015C91.0433 128.659 91.1567 128.894 91.355 129.086C91.559 129.273 91.8537 129.367 92.239 129.367C92.6073 129.367 92.8963 129.276 93.106 129.095C93.3214 128.908 93.429 128.67 93.429 128.381C93.429 128.154 93.3667 127.97 93.242 127.828C93.1174 127.687 92.9615 127.579 92.7745 127.505C92.5875 127.432 92.3353 127.352 92.018 127.267C91.627 127.165 91.3125 127.063 91.0745 126.961C90.8422 126.859 90.641 126.701 90.471 126.485C90.3067 126.264 90.2245 125.97 90.2245 125.601C90.2245 125.278 90.3067 124.992 90.471 124.743C90.6353 124.494 90.8648 124.301 91.1595 124.165C91.4598 124.029 91.8027 123.961 92.188 123.961C92.7434 123.961 93.1967 124.1 93.548 124.377C93.905 124.655 94.1062 125.023 94.1515 125.482H93.3015C93.2732 125.256 93.1542 125.057 92.9445 124.887C92.7348 124.712 92.4572 124.624 92.1115 124.624C91.7885 124.624 91.525 124.709 91.321 124.879C91.117 125.043 91.015 125.276 91.015 125.576C91.015 125.791 91.0745 125.967 91.1935 126.103C91.3182 126.239 91.4683 126.344 91.644 126.417C91.8254 126.485 92.0775 126.565 92.4005 126.655C92.7915 126.763 93.106 126.871 93.344 126.978C93.582 127.08 93.786 127.242 93.956 127.463C94.126 127.678 94.211 127.973 94.211 128.347C94.211 128.636 94.1345 128.908 93.9815 129.163C93.8285 129.418 93.6018 129.625 93.3015 129.783C93.0012 129.942 92.647 130.021 92.239 130.021ZM102.251 128.644H99.6673L99.1913 129.962H98.3753L100.517 124.071H101.41L103.543 129.962H102.727L102.251 128.644ZM102.03 128.015L100.959 125.023L99.8883 128.015H102.03Z" fill="#333333"/>
</svg>
