<svg width="112" height="82" viewBox="0 0 112 82" fill="none" xmlns="http://www.w3.org/2000/svg">
<path fill-rule="evenodd" clip-rule="evenodd" d="M23.9339 24.2931C24.2368 24.4685 24.4822 24.7483 24.6279 25.0543L25.0266 25.9013L26.0695 28.1027C26.1078 28.181 26.0426 28.2407 25.9621 28.1997L23.7499 27.0841L22.8873 26.6475C22.5921 26.4983 22.3237 26.2632 22.1665 25.9722C21.8368 25.3677 22.1397 24.9946 22.5499 24.6103C22.9601 24.2259 23.3052 23.9275 23.9301 24.2894L23.9339 24.2931Z" fill="#BF83B3"/>
<path fill-rule="evenodd" clip-rule="evenodd" d="M29.3549 21.5505C29.4239 22.0915 29.3012 22.6624 29.0444 23.14L28.3389 24.4497L26.5063 27.86C26.4411 27.9794 26.2993 27.9607 26.2763 27.8264L25.5747 24.0392L25.3024 22.5579C25.2104 22.0505 25.2526 21.4946 25.475 21.0207C25.935 20.0357 26.7133 20.0394 27.6028 20.1737C28.4923 20.308 29.2169 20.4386 29.3588 21.5543L29.3549 21.5505Z" fill="#BF83B3"/>
<path fill-rule="evenodd" clip-rule="evenodd" d="M35.7164 23.9389C35.2372 24.4687 34.5816 24.8978 33.9183 25.1478L32.0895 25.8343L27.3316 27.6291C27.1629 27.6925 27.0747 27.5768 27.1897 27.4388L30.3719 23.562L31.6179 22.0472C32.0435 21.5285 32.6263 21.0584 33.2589 20.786C34.5816 20.2189 35.1758 20.7599 35.7279 21.4912C36.28 22.2225 36.7056 22.8419 35.7202 23.9389H35.7164Z" fill="#BF83B3"/>
<path fill-rule="evenodd" clip-rule="evenodd" d="M33.743 27.375C33.2331 27.1474 32.6389 27.0914 32.0945 27.1847L30.5992 27.4459L26.7039 28.1249C26.5659 28.1473 26.5468 28.2854 26.6694 28.3488L30.1698 30.1361L31.5385 30.8338C32.0063 31.0726 32.566 31.1994 33.0951 31.136C34.1993 31.0017 34.4293 30.2816 34.5673 29.4159C34.7054 28.5503 34.7935 27.8414 33.743 27.375Z" fill="#BF83B3"/>
<path fill-rule="evenodd" clip-rule="evenodd" d="M29.4267 31.5842C29.3462 31.2521 29.1469 30.9387 28.89 30.7111L28.1807 30.0879L26.3366 28.4574C26.2714 28.4014 26.1947 28.4425 26.2062 28.5246L26.6356 30.9125L26.8043 31.8453C26.8618 32.1662 27.0114 32.4834 27.2491 32.7184C27.7436 33.2035 28.1999 33.0393 28.6983 32.7707C29.1967 32.502 29.5916 32.2744 29.4267 31.5842Z" fill="#BF83B3"/>
<path fill-rule="evenodd" clip-rule="evenodd" d="M47.8593 28.0313C47.5372 28.3224 47.104 28.5089 46.6707 28.5686L45.4861 28.7328L42.3997 29.1581C42.2924 29.1731 42.2387 29.0761 42.3154 28.9977L44.4816 26.8187L45.3289 25.968C45.6202 25.6769 46.0075 25.4493 46.4177 25.3672C47.2765 25.2031 47.6331 25.6881 47.9551 26.3038C48.2772 26.9194 48.5225 27.4306 47.8554 28.0313H47.8593Z" fill="#BF83B3"/>
<path fill-rule="evenodd" clip-rule="evenodd" d="M49.2931 35.3368C48.603 35.2248 47.9436 34.8741 47.449 34.404L46.0918 33.113L42.5492 29.7512C42.4265 29.6318 42.4994 29.4751 42.6757 29.4937L47.587 30.0347L49.5078 30.2474C50.1634 30.3183 50.8344 30.572 51.3366 30.9974C52.3833 31.8891 52.1034 32.7921 51.6203 33.7846C51.1372 34.7771 50.7155 35.5681 49.2931 35.3368Z" fill="#BF83B3"/>
<path fill-rule="evenodd" clip-rule="evenodd" d="M44.076 41.8913C43.5929 41.145 43.3015 40.2271 43.2325 39.3615L43.0408 36.9847L42.5385 30.7909C42.5194 30.5745 42.6957 30.5111 42.8223 30.6902L46.4568 35.7907L47.8754 37.7832C48.3623 38.466 48.7304 39.313 48.8377 40.1488C49.0601 41.895 48.1821 42.3913 47.0818 42.7718C45.9814 43.1524 45.0689 43.4285 44.0721 41.8875L44.076 41.8913Z" fill="#BF83B3"/>
<path fill-rule="evenodd" clip-rule="evenodd" d="M40.5504 38.3681C41.0104 37.8569 41.298 37.1815 41.3747 36.5136L41.5894 34.6779L42.1491 29.8945C42.1683 29.7266 42.0073 29.652 41.8846 29.7714L38.4302 33.2115L37.0806 34.5585C36.6206 35.0174 36.264 35.6256 36.149 36.2674C35.9151 37.6032 36.7241 38.1293 37.7401 38.5994C38.7561 39.0695 39.5995 39.4277 40.5504 38.3718V38.3681Z" fill="#BF83B3"/>
<path fill-rule="evenodd" clip-rule="evenodd" d="M36.9123 31.8228C37.3532 31.8489 37.8095 31.7295 38.1814 31.5094L39.205 30.9049L41.8734 29.3378C41.9654 29.2818 41.9424 29.1774 41.8351 29.1624L38.7411 28.808L37.5334 28.6699C37.1193 28.6214 36.6708 28.6848 36.2989 28.8751C35.5244 29.2744 35.5628 29.8714 35.7161 30.5467C35.8695 31.2221 36.0075 31.7668 36.9161 31.8228H36.9123Z" fill="#BF83B3"/>
<path fill-rule="evenodd" clip-rule="evenodd" d="M55.6406 20.1532C55.8246 20.4181 55.9166 20.7502 55.9128 21.0711L55.9013 21.9442L55.8744 24.2165C55.8744 24.2949 55.7939 24.321 55.7441 24.2575L54.3332 22.4479L53.7811 21.739C53.5932 21.4965 53.4629 21.1905 53.4475 20.8845C53.4207 20.2465 53.8271 20.045 54.3332 19.8846C54.8393 19.7241 55.2533 19.6047 55.6329 20.1532H55.6406Z" fill="#BF83B3"/>
<path fill-rule="evenodd" clip-rule="evenodd" d="M61.3605 19.9555C61.1956 20.4405 60.8544 20.8733 60.4404 21.1756L59.3017 22.0076L56.3419 24.1755C56.2384 24.2501 56.1272 24.1755 56.1617 24.0561L57.1317 20.5786L57.5112 19.2204C57.6416 18.7577 57.91 18.3025 58.2895 17.9891C59.087 17.3361 59.7426 17.6421 60.4404 18.1048C61.1381 18.5674 61.6941 18.9592 61.3528 19.9555H61.3605Z" fill="#BF83B3"/>
<path fill-rule="evenodd" clip-rule="evenodd" d="M65.7503 24.4621C65.1253 24.7233 64.3969 24.8315 63.7298 24.783L61.901 24.6487L57.1354 24.3054C56.9667 24.2942 56.9399 24.1599 57.0933 24.089L61.3834 22.0518L63.0627 21.257C63.6378 20.9846 64.324 20.8167 64.972 20.8354C66.3254 20.8727 66.6014 21.563 66.7663 22.3988C66.9311 23.2346 67.0385 23.9211 65.7503 24.4659V24.4621Z" fill="#BF83B3"/>
<path fill-rule="evenodd" clip-rule="evenodd" d="M62.6677 26.5974C62.3303 26.2094 61.8511 25.9258 61.3488 25.7915L59.9763 25.4296L56.4031 24.4818C56.2765 24.4482 56.2037 24.5565 56.2804 24.6572L58.5041 27.5377L59.3744 28.6645C59.6734 29.0488 60.0913 29.3772 60.5667 29.5302C61.5559 29.851 62.0466 29.3287 62.522 28.6496C62.9974 27.9705 63.3617 27.4034 62.6677 26.6012V26.5974Z" fill="#BF83B3"/>
<path fill-rule="evenodd" clip-rule="evenodd" d="M57.2758 28.4721C57.3448 28.1587 57.3065 27.8155 57.1799 27.5244L56.8387 26.7185L55.9492 24.6178C55.9186 24.5432 55.8342 24.5506 55.8112 24.6253L55.1901 26.8118L54.9486 27.6662C54.8642 27.9572 54.8604 28.2893 54.9639 28.5766C55.1786 29.1811 55.6349 29.2184 56.1678 29.1885C56.7007 29.1587 57.1301 29.1176 57.2758 28.4721Z" fill="#BF83B3"/>
<path fill-rule="evenodd" clip-rule="evenodd" d="M65.8184 12.2123C66.0292 12.119 66.2784 12.0966 66.5008 12.1414L67.1181 12.2533L68.7245 12.5481C68.782 12.5593 68.7897 12.6153 68.7398 12.6414L67.2868 13.369L66.7193 13.6525C66.5238 13.7495 66.2938 13.8018 66.0752 13.7719C65.619 13.7122 65.527 13.4137 65.4733 13.0555C65.4196 12.6973 65.3851 12.4026 65.8222 12.2123H65.8184Z" fill="#BF83B3"/>
<path fill-rule="evenodd" clip-rule="evenodd" d="M66.3707 8.3477C66.6927 8.5156 66.9611 8.79917 67.126 9.1126L67.5784 9.97824L68.7592 12.2282C68.8014 12.3065 68.7362 12.3737 68.6519 12.3364L66.3017 11.2618L65.3853 10.8401C65.071 10.6984 64.7796 10.4633 64.6071 10.1685C64.239 9.55288 64.538 9.14991 64.9483 8.73574C65.3585 8.32158 65.7074 7.99696 66.3745 8.34397L66.3707 8.3477Z" fill="#BF83B3"/>
<path fill-rule="evenodd" clip-rule="evenodd" d="M70.0974 5.94031C70.2086 6.39179 70.1932 6.8955 70.0782 7.33578L69.7638 8.54842L68.9434 11.7088C68.9127 11.8207 68.8168 11.8207 68.7862 11.7088L67.8622 8.57827L67.5018 7.35444C67.3791 6.93654 67.3408 6.45522 67.4328 6.0224C67.6245 5.11944 68.1459 5.01497 68.7593 5.00378C69.3728 4.99258 69.875 5.00378 70.1012 5.93658L70.0974 5.94031Z" fill="#BF83B3"/>
<path fill-rule="evenodd" clip-rule="evenodd" d="M71.2412 8.27064C70.923 8.44973 70.6661 8.73704 70.5128 9.05792L70.091 9.93476L68.9868 12.222C68.9485 12.3041 69.0137 12.3675 69.098 12.3265L71.4099 11.181L72.3147 10.7332C72.6253 10.5803 72.9051 10.3377 73.0738 10.0355C73.4189 9.40866 73.1122 9.01688 72.6866 8.61391C72.261 8.21094 71.9045 7.89752 71.2489 8.2669L71.2412 8.27064Z" fill="#BF83B3"/>
<path fill-rule="evenodd" clip-rule="evenodd" d="M71.9163 12.1177C71.7016 12.0319 71.4563 12.017 71.2301 12.0655L70.6166 12.1961L69.0179 12.5394C68.9604 12.5506 68.9565 12.6103 69.0064 12.6326L70.4825 13.3155L71.0614 13.5804C71.2569 13.6699 71.4908 13.7147 71.7093 13.6811C72.1656 13.6102 72.2461 13.308 72.2882 12.9461C72.3304 12.5841 72.3534 12.2894 71.9125 12.114L71.9163 12.1177Z" fill="#BF83B3"/>
<path fill-rule="evenodd" clip-rule="evenodd" d="M104.51 29.3667C104.556 29.6204 104.51 29.8928 104.403 30.1241L104.1 30.7584L103.314 32.4151C103.287 32.4748 103.218 32.4673 103.203 32.4039L102.781 30.6278L102.616 29.9338C102.559 29.695 102.567 29.4301 102.662 29.2025C102.858 28.7249 103.226 28.71 103.648 28.751C104.069 28.7921 104.418 28.8406 104.51 29.3629V29.3667Z" fill="#BF83B3"/>
<path fill-rule="evenodd" clip-rule="evenodd" d="M108.77 31.0491C108.487 31.3513 108.092 31.5603 107.685 31.6498L106.574 31.8961L103.675 32.5379C103.572 32.5603 103.518 32.4707 103.583 32.3924L105.466 30.1536L106.202 29.2805C106.455 28.982 106.804 28.732 107.191 28.6276C107.996 28.4037 108.372 28.8365 108.728 29.3962C109.085 29.9559 109.361 30.4223 108.774 31.0454L108.77 31.0491Z" fill="#BF83B3"/>
<path fill-rule="evenodd" clip-rule="evenodd" d="M110.469 35.7571C109.925 35.7496 109.354 35.5929 108.882 35.3466L107.586 34.6638L104.208 32.8878C104.09 32.8243 104.116 32.7199 104.251 32.7161L108.084 32.593L109.584 32.5445C110.097 32.5296 110.657 32.6229 111.125 32.843C112.102 33.3019 112.076 33.8952 111.915 34.5631C111.754 35.231 111.6 35.7645 110.473 35.7533L110.469 35.7571Z" fill="#BF83B3"/>
<path fill-rule="evenodd" clip-rule="evenodd" d="M107.488 36.3356C107.373 35.9439 107.116 35.5819 106.794 35.3245L105.912 34.6193L103.612 32.7835C103.532 32.7201 103.44 32.7723 103.463 32.8731L104.118 35.6939L104.375 36.7946C104.463 37.1714 104.663 37.5446 104.958 37.8095C105.575 38.3617 106.112 38.1341 106.687 37.7871C107.262 37.4401 107.722 37.1416 107.484 36.3319L107.488 36.3356Z" fill="#BF83B3"/>
<path fill-rule="evenodd" clip-rule="evenodd" d="M102.907 35.9881C103.065 35.7791 103.149 35.5179 103.157 35.2605L103.18 34.559L103.237 32.7344C103.237 32.671 103.176 32.6486 103.134 32.6971L101.941 34.1001L101.473 34.6486C101.312 34.8351 101.197 35.0776 101.178 35.3239C101.132 35.8351 101.454 36.0104 101.853 36.156C102.252 36.3015 102.581 36.4097 102.907 35.9843V35.9881Z" fill="#BF83B3"/>
<path fill-rule="evenodd" clip-rule="evenodd" d="M63.7844 34.3801C64.0029 34.6002 64.1448 34.895 64.1984 35.1897L64.3365 36.0069L64.7007 38.1337C64.7122 38.2083 64.6432 38.2456 64.5857 38.1934L62.9562 36.7345L62.3198 36.1636C62.1013 35.9696 61.9287 35.7047 61.8636 35.4211C61.7256 34.8278 62.0744 34.5741 62.5192 34.3428C62.9639 34.1114 63.332 33.9286 63.7805 34.3801H63.7844Z" fill="#BF83B3"/>
<path fill-rule="evenodd" clip-rule="evenodd" d="M69.0896 33.2614C69.0205 33.739 68.7752 34.2017 68.4416 34.5524L67.5215 35.515L65.1291 38.0224C65.0447 38.112 64.9297 38.0597 64.9412 37.9403L65.2479 34.5337L65.3706 33.2017C65.4128 32.7465 65.5853 32.2764 65.8882 31.9219C66.5208 31.1831 67.1841 31.3622 67.9164 31.6794C68.6486 31.9965 69.2352 32.2726 69.0896 33.2614Z" fill="#BF83B3"/>
<path fill-rule="evenodd" clip-rule="evenodd" d="M73.9716 36.7543C73.4348 37.1013 72.7716 37.3214 72.139 37.3848L70.406 37.5602L65.8935 38.0154C65.7363 38.0303 65.6864 37.9109 65.8168 37.8214L69.4744 35.217L70.9044 34.1984C71.3952 33.8514 72.0048 33.579 72.6144 33.4932C73.8834 33.3104 74.263 33.9074 74.562 34.6611C74.8611 35.4148 75.0758 36.0416 73.9678 36.758L73.9716 36.7543Z" fill="#BF83B3"/>
<path fill-rule="evenodd" clip-rule="evenodd" d="M71.4559 39.2558C71.0725 38.9461 70.5779 38.7595 70.0872 38.7185L68.7414 38.6028L65.2411 38.3006C65.1184 38.2894 65.0647 38.4013 65.1567 38.4834L67.7293 40.8117L68.7338 41.7221C69.0788 42.0318 69.5274 42.2706 69.999 42.334C70.9766 42.4721 71.3485 41.9049 71.6744 41.1923C72.0003 40.4796 72.2457 39.8938 71.4559 39.252V39.2558Z" fill="#BF83B3"/>
<path fill-rule="evenodd" clip-rule="evenodd" d="M66.7481 41.8824C66.7596 41.5765 66.6638 41.263 66.4951 41.0093L66.035 40.3116L64.8427 38.4945C64.8005 38.4311 64.7238 38.4497 64.7161 38.5243L64.5129 40.6698L64.4324 41.5093C64.4056 41.7966 64.4593 42.1063 64.605 42.36C64.9117 42.8898 65.3449 42.8488 65.8357 42.7331C66.3264 42.6175 66.7213 42.5093 66.7481 41.8824Z" fill="#BF83B3"/>
<path fill-rule="evenodd" clip-rule="evenodd" d="M85.2303 36.0614C85.5447 36.2666 85.7939 36.58 85.932 36.9158L86.3115 37.8449L87.3045 40.2664C87.339 40.3523 87.2662 40.412 87.1857 40.3672L84.8738 39.0463L83.9728 38.5314C83.6661 38.3561 83.3901 38.0874 83.2367 37.7665C82.9185 37.0986 83.2635 36.7143 83.7274 36.3263C84.1913 35.9382 84.5786 35.636 85.2303 36.0576V36.0614Z" fill="#BF83B3"/>
<path fill-rule="evenodd" clip-rule="evenodd" d="M91.2119 33.4142C91.2541 33.9962 91.0892 34.6044 90.7864 35.1007L89.9544 36.4663L87.7882 40.0296C87.7115 40.1565 87.562 40.1229 87.5429 39.9811L87.0099 35.8768L86.8029 34.2724C86.7301 33.7239 86.8106 33.1269 87.0751 32.6306C87.6272 31.5971 88.463 31.6456 89.41 31.8359C90.357 32.0262 91.1276 32.209 91.2158 33.4142H91.2119Z" fill="#BF83B3"/>
<path fill-rule="evenodd" clip-rule="evenodd" d="M97.9012 36.3267C97.3567 36.8715 96.6283 37.2969 95.8999 37.5282L93.8985 38.1662L88.6844 39.8303C88.5004 39.89 88.4122 39.7595 88.5425 39.6177L92.1809 35.6253L93.6033 34.0656C94.0902 33.5321 94.742 33.0582 95.4398 32.8045C96.8928 32.2709 97.4986 32.8791 98.0507 33.7C98.6028 34.5208 99.0245 35.2036 97.9012 36.3267Z" fill="#BF83B3"/>
<path fill-rule="evenodd" clip-rule="evenodd" d="M95.5903 39.9052C95.0573 39.6366 94.4209 39.5396 93.8305 39.6142L92.2126 39.8157L87.9914 40.3306C87.8419 40.3492 87.8112 40.4947 87.9416 40.5694L91.5953 42.6812L93.0254 43.5058C93.5123 43.7894 94.1065 43.9536 94.6816 43.9163C95.874 43.8342 96.1654 43.073 96.3609 42.1477C96.5564 41.2223 96.6944 40.4686 95.5941 39.9089L95.5903 39.9052Z" fill="#BF83B3"/>
<path fill-rule="evenodd" clip-rule="evenodd" d="M90.7105 44.1914C90.6454 43.8295 90.446 43.4825 90.1814 43.2251L89.4568 42.5161L87.5667 40.6654C87.5015 40.602 87.4133 40.6431 87.4248 40.7326L87.7469 43.3221L87.8734 44.3332C87.9156 44.6802 88.0613 45.031 88.299 45.2959C88.8012 45.8444 89.3035 45.6914 89.8517 45.4302C90.4 45.169 90.8409 44.9451 90.7029 44.1952L90.7105 44.1914Z" fill="#BF83B3"/>
<path fill-rule="evenodd" clip-rule="evenodd" d="M79.7773 52.8287C79.4974 52.9705 79.1639 53.0227 78.8533 52.9854L78.0022 52.8847L75.7862 52.6235C75.7095 52.616 75.6903 52.5377 75.7594 52.4966L77.6725 51.381L78.4201 50.9444C78.677 50.7952 78.9875 50.7056 79.2866 50.728C79.9115 50.7691 80.0649 51.1683 80.1722 51.6534C80.2796 52.1384 80.3486 52.5339 79.7735 52.8287H79.7773Z" fill="#BF83B3"/>
<path fill-rule="evenodd" clip-rule="evenodd" d="M79.3729 58.1391C78.9166 57.9377 78.5294 57.5757 78.2764 57.1616L77.5824 56.0235L75.7766 53.061C75.7115 52.9565 75.7958 52.8632 75.9108 52.908L79.2042 54.1691L80.4924 54.6617C80.9333 54.8296 81.3473 55.1243 81.6157 55.5124C82.1716 56.3183 81.8036 56.8929 81.2783 57.4899C80.7684 58.072 80.3122 58.5608 79.3729 58.1429V58.1391Z" fill="#BF83B3"/>
<path fill-rule="evenodd" clip-rule="evenodd" d="M74.5169 61.727C74.3252 61.1226 74.2983 60.4361 74.4172 59.8241L74.7392 58.1451L75.575 53.7758C75.6057 53.6229 75.736 53.6117 75.7897 53.7572L77.331 57.9399L77.9329 59.5741C78.1399 60.1338 78.2319 60.7868 78.1476 61.3838C77.9674 62.63 77.2696 62.8166 76.4338 62.88C75.598 62.9434 74.9194 62.9695 74.5207 61.7233L74.5169 61.727Z" fill="#BF83B3"/>
<path fill-rule="evenodd" clip-rule="evenodd" d="M72.7529 58.6502C73.167 58.3778 73.4967 57.9636 73.6769 57.5159L74.1753 56.2846L75.475 53.0795C75.521 52.9675 75.4252 52.8855 75.3178 52.9489L72.2737 54.7026L71.0852 55.3891C70.6788 55.6242 70.3145 55.9786 70.1152 56.4003C69.7011 57.2808 70.1573 57.792 70.7708 58.2994C71.3842 58.8069 71.898 59.2061 72.7568 58.6502H72.7529Z" fill="#BF83B3"/>
<path fill-rule="evenodd" clip-rule="evenodd" d="M71.4886 53.4733C71.7876 53.5703 72.125 53.5703 72.4241 53.4845L73.2484 53.2531L75.3916 52.6524C75.4682 52.63 75.4721 52.5517 75.3992 52.5255L73.3289 51.7233L72.5199 51.4099C72.2439 51.3017 71.9218 51.2644 71.6266 51.3278C71.0132 51.4659 70.9288 51.8838 70.9058 52.3763C70.8828 52.8688 70.8752 53.2718 71.4924 53.477L71.4886 53.4733Z" fill="#BF83B3"/>
<path d="M99.1938 37.3041C94.9458 40.9228 89.9897 42.9627 84.8204 43.6856C88.2559 44.1468 91.5948 45.2957 94.3383 47.3863C98.4134 50.5243 100.57 55.7843 99.9742 60.7785C99.6926 53.2989 95.4003 47.4762 88.0668 45.112C86.4175 44.5571 84.7198 44.1741 82.9941 43.8927C76.7266 44.4008 70.2378 43.0526 64.3927 40.3249C66.1708 41.8294 67.8523 43.4473 69.393 45.1706C74.4135 50.8096 78.0662 57.6249 79.7919 64.8973C80.2787 66.9646 80.6367 69.0631 80.7091 71.1811C80.5965 70.1299 80.3994 69.0904 80.1701 68.0627C77.4265 55.7569 69.4534 44.8228 58.6723 37.9099C58.5114 37.7965 58.1735 37.5777 58.0045 37.48C57.3408 37.0853 56.6247 36.6203 55.9569 36.2412C55.5064 35.995 54.2955 35.3229 53.857 35.0845C53.503 34.9126 52.787 34.5491 52.433 34.3733C36.0482 26.6631 16.3848 28.5545 0 35.4401C12.3862 29.0703 27.8256 26.3427 41.8088 29.2267C48.8084 28.3552 55.7477 25.8229 60.8325 20.9968C66.6334 15.5219 68.7172 7.67107 69.031 0C69.3246 3.88438 68.9827 7.85474 67.8201 11.6414C64.5657 22.6342 53.9938 28.7773 42.7984 29.4416C47.1712 30.4303 51.387 31.9778 55.3133 34.1466C56.5764 34.8266 57.9844 35.6824 59.1912 36.4444C59.6418 36.7531 60.7642 37.5191 61.2187 37.8278C61.9911 38.3905 62.7474 38.9767 63.4916 39.5785C74.7876 44.1389 87.8616 44.7564 98.0031 37.1635C101.527 34.5804 104.456 31.3095 106.994 27.7964C104.975 31.3525 102.368 34.6468 99.1978 37.312L99.1938 37.3041Z" fill="#BF83B3"/>
<path d="M15.5317 55.2178V54.957C14.0231 54.6963 13.9114 54.5101 13.8928 52.6476L13.8369 45.5518C13.8369 43.8011 13.9859 43.6521 15.5317 43.3914V43.112H12.2166L8.06339 52.0889L4.11505 43.112H0.725438V43.3914C2.25263 43.559 2.47612 44.1736 2.45749 44.751C2.02913 51.9399 1.97326 52.9642 1.88014 53.6347C1.76839 54.4542 1.41453 54.7522 0.222584 54.957V55.2178H4.48753V54.957C3.14659 54.7149 2.69961 54.4914 2.68098 53.5975C2.66236 52.927 2.68098 51.2136 2.94172 45.0303C4.58065 48.9414 6.83419 54.4542 7.13217 55.2178H7.37429C7.6909 54.4169 10.5032 48.0661 11.9745 44.7323L11.9186 52.6476C11.9 54.5473 11.8255 54.6963 10.4473 54.957V55.2178H15.5317ZM28.6193 43.112H24.82V43.3914C26.2913 43.6707 26.3285 43.9129 25.956 44.7137C25.4346 45.8498 24.3357 48.0102 23.7211 49.2394C23.032 47.8985 22.0449 46.036 21.2627 44.5088C20.9275 43.8197 20.9834 43.6521 22.1939 43.3914V43.112H17.4261V43.3914C18.4877 43.5963 18.674 43.7452 19.4562 45.1421C20.3315 46.7251 21.4117 48.7552 21.7842 49.556C21.9518 49.8912 22.0077 50.1147 22.0077 50.4686V52.778C22.0077 54.5473 21.8215 54.7335 20.406 54.957V55.2178H25.6208V54.957C24.1309 54.6777 23.9819 54.5845 23.9819 52.778L24.0005 50.2079C24.0005 49.8726 24.075 49.6678 24.2054 49.407C25.0248 47.7867 25.7512 46.3713 26.5893 44.8999C27.1852 43.857 27.3901 43.6149 28.6193 43.3914V43.112ZM7.52328 61.6635C7.39291 60.7323 7.28117 59.8011 7.20667 59.1306C6.81556 59.0748 6.01472 58.8513 4.87864 58.8513C2.43887 58.8513 1.06067 60.2853 1.06067 62.185C1.06067 64.1592 2.64373 65.0718 4.05918 65.9471C5.3815 66.7852 6.14509 67.5302 6.14509 68.7966C6.14509 70.1003 5.49324 71.0688 4.13367 71.0688C2.3085 71.0688 1.39591 69.4857 1.0048 68.2379L0.706814 68.2938C0.744062 68.6663 1.04205 70.7149 1.13517 71.0502C2.01051 71.2923 2.82998 71.4971 3.89156 71.4971C6.21959 71.4971 8.00751 70.0258 8.00751 67.9027C8.00751 65.8912 6.49895 64.96 4.95314 64.0288C3.44458 63.1349 2.71823 62.5575 2.71823 61.3097C2.71823 60.1177 3.37008 59.2983 4.59928 59.2983C6.12647 59.2983 6.83419 60.5088 7.2253 61.7194L7.52328 61.6635ZM22.645 59.112H18.5104V59.3914C20.019 59.5963 20.317 59.857 20.3915 60.7882C20.4287 61.3656 20.466 62.036 20.466 63.526V65.6864C20.466 68.9456 19.7396 70.5473 17.2626 70.5473C14.9904 70.5473 13.873 69.0946 13.873 66.4127V61.6077C13.873 59.8011 13.9847 59.6707 15.3629 59.3914V59.112H10.4089V59.3914C11.7684 59.6521 11.9174 59.8011 11.9174 61.6077V66.45C11.9174 68.4428 12.3085 69.672 13.3701 70.5473C14.1896 71.2178 15.3629 71.4785 16.4804 71.4785C17.8772 71.4785 19.0319 71.1433 19.8327 70.2866C20.8757 69.1877 21.0806 67.6792 21.0806 65.7981V63.526C21.0806 62.036 21.1178 61.3469 21.1551 60.8255C21.2109 60.0619 21.3227 59.6707 22.645 59.3914V59.112ZM30.0646 71.2178V70.957C28.6678 70.6777 28.5001 70.5845 28.5001 68.927V61.4028C28.5001 59.7266 28.6678 59.6521 30.0646 59.3914V59.112H25.0174V59.3914C26.3956 59.6149 26.5446 59.7452 26.5446 61.4028V68.927C26.5446 70.5659 26.3956 70.7149 25.0174 70.957V71.2178H30.0646ZM42.902 61.7939C42.7903 60.8068 42.7531 59.5218 42.7531 58.7395H42.5109C42.2316 59.0561 41.9708 59.112 41.468 59.112H33.8879C33.3106 59.112 33.0685 59.112 32.7891 58.7395H32.547C32.5097 59.6894 32.398 60.8813 32.3049 61.8498H32.6215C32.8263 61.2166 33.0685 60.6392 33.3478 60.2667C33.6086 59.8942 33.8134 59.6335 34.6888 59.6335H36.6257V69.0201C36.6257 70.5659 36.4581 70.659 35.0054 70.957V71.2178H40.2574V70.957C38.7488 70.7149 38.5812 70.5473 38.5812 69.0201V59.6335H40.276C41.3749 59.6335 41.5611 59.8011 41.8963 60.2853C42.1757 60.6392 42.4178 61.1793 42.6041 61.8312L42.902 61.7939ZM54.5063 68.3496C54.2269 69.0015 53.9661 69.5602 53.6495 69.9327C53.1839 70.5101 52.9232 70.6963 51.8989 70.6963H50.5393C49.4218 70.6777 49.0494 70.5101 49.0494 69.1691V65.109H51.0608C52.4203 65.109 52.4948 65.5374 52.7742 66.6735H53.0536V62.9859H52.7742C52.5693 64.0847 52.439 64.5503 51.0421 64.5503H49.0494V60.155C49.0494 59.7266 49.1238 59.6521 49.5522 59.6521H51.1725C52.2713 59.6521 52.6066 59.7639 52.9604 60.2109C53.2771 60.6392 53.5378 61.3097 53.6682 61.7753L53.9661 61.7194C53.873 61.0117 53.7985 59.7639 53.7985 59.0748C53.575 59.112 52.9046 59.112 51.1539 59.112H45.6411V59.3914C46.9821 59.6149 47.0938 59.7266 47.0938 61.3656V69.0201C47.0938 70.6218 46.9634 70.6963 45.3618 70.957V71.2178H54.2269C54.3386 70.7335 54.6739 69.0387 54.767 68.4055L54.5063 68.3496ZM64.4982 61.6635C64.3678 60.7323 64.256 59.8011 64.1815 59.1306C63.7904 59.0748 62.9896 58.8513 61.8535 58.8513C59.4137 58.8513 58.0355 60.2853 58.0355 62.185C58.0355 64.1592 59.6186 65.0718 61.034 65.9471C62.3564 66.7852 63.12 67.5302 63.12 68.7966C63.12 70.1003 62.4681 71.0688 61.1085 71.0688C59.2834 71.0688 58.3708 69.4857 57.9797 68.2379L57.6817 68.2938C57.7189 68.6663 58.0169 70.7149 58.11 71.0502C58.9854 71.2923 59.8048 71.4971 60.8664 71.4971C63.1945 71.4971 64.9824 70.0258 64.9824 67.9027C64.9824 65.8912 63.4738 64.96 61.928 64.0288C60.4194 63.1349 59.6931 62.5575 59.6931 61.3097C59.6931 60.1177 60.3449 59.2983 61.5741 59.2983C63.1013 59.2983 63.8091 60.5088 64.2002 61.7194L64.4982 61.6635Z" fill="#F4F4F4"/>
<path d="M2.22841 79.7072C2.36209 79.7283 2.48346 79.7828 2.59252 79.8708C2.70509 79.9587 2.79304 80.0678 2.85636 80.1979C2.9232 80.3281 2.95662 80.467 2.95662 80.6148C2.95662 80.8012 2.90913 80.9701 2.81415 81.1214C2.71916 81.2691 2.5802 81.387 2.39727 81.4749C2.21786 81.5593 2.00503 81.6016 1.75877 81.6016H0.386787V77.9236H1.706C1.95578 77.9236 2.16861 77.9658 2.3445 78.0502C2.5204 78.1311 2.65232 78.242 2.74027 78.3827C2.82822 78.5234 2.87219 78.6817 2.87219 78.8576C2.87219 79.0757 2.81239 79.2569 2.69278 79.4011C2.57669 79.5418 2.4219 79.6438 2.22841 79.7072ZM0.866982 79.5119H1.67434C1.89949 79.5119 2.07363 79.4592 2.19675 79.3536C2.31988 79.2481 2.38144 79.1021 2.38144 78.9156C2.38144 78.7292 2.31988 78.5832 2.19675 78.4777C2.07363 78.3721 1.89597 78.3194 1.66379 78.3194H0.866982V79.5119ZM1.71656 81.2058C1.95578 81.2058 2.14222 81.1495 2.27591 81.0369C2.40959 80.9244 2.47643 80.7678 2.47643 80.5673C2.47643 80.3633 2.40607 80.2032 2.26535 80.0871C2.12464 79.9675 1.93643 79.9077 1.70073 79.9077H0.866982V81.2058H1.71656ZM7.8867 77.9236L6.68885 80.2137V81.6016H6.20865V80.2137L5.00553 77.9236H5.53849L6.44611 79.7863L7.35373 77.9236H7.8867ZM14.0796 81.2111H15.3671V81.6016H13.5994V77.9236H14.0796V81.2111ZM20.1619 80.7836H18.5577L18.2622 81.6016H17.7556L19.0854 77.9447H19.6395L20.964 81.6016H20.4574L20.1619 80.7836ZM20.0247 80.3932L19.3598 78.5357L18.6949 80.3932H20.0247ZM26.9924 79.7599C26.9924 79.4011 27.0733 79.0792 27.2351 78.7943C27.397 78.5058 27.6168 78.2807 27.8948 78.1188C28.1762 77.957 28.4875 77.8761 28.8288 77.8761C29.2298 77.8761 29.5798 77.9728 29.8789 78.1663C30.1779 78.3598 30.396 78.6342 30.5332 78.9895H29.958C29.856 78.7679 29.7082 78.5973 29.5148 78.4777C29.3248 78.358 29.0961 78.2982 28.8288 78.2982C28.572 78.2982 28.3415 78.358 28.1375 78.4777C27.9335 78.5973 27.7734 78.7679 27.6573 78.9895C27.5412 79.2076 27.4832 79.4644 27.4832 79.7599C27.4832 80.0519 27.5412 80.3087 27.6573 80.5304C27.7734 80.7485 27.9335 80.9173 28.1375 81.0369C28.3415 81.1565 28.572 81.2164 28.8288 81.2164C29.0961 81.2164 29.3248 81.1583 29.5148 81.0422C29.7082 80.9226 29.856 80.752 29.958 80.5304H30.5332C30.396 80.8821 30.1779 81.1548 29.8789 81.3483C29.5798 81.5382 29.2298 81.6332 28.8288 81.6332C28.4875 81.6332 28.1762 81.5541 27.8948 81.3958C27.6168 81.2339 27.397 81.0106 27.2351 80.7256C27.0733 80.4407 26.9924 80.1188 26.9924 79.7599ZM35.0262 81.6385C34.685 81.6385 34.3737 81.5593 34.0922 81.401C33.8108 81.2392 33.5874 81.0158 33.4221 80.7309C33.2602 80.4424 33.1793 80.1188 33.1793 79.7599C33.1793 79.4011 33.2602 79.0792 33.4221 78.7943C33.5874 78.5058 33.8108 78.2824 34.0922 78.1241C34.3737 77.9623 34.685 77.8814 35.0262 77.8814C35.371 77.8814 35.6841 77.9623 35.9655 78.1241C36.247 78.2824 36.4686 78.504 36.6304 78.789C36.7922 79.0739 36.8731 79.3976 36.8731 79.7599C36.8731 80.1223 36.7922 80.4459 36.6304 80.7309C36.4686 81.0158 36.247 81.2392 35.9655 81.401C35.6841 81.5593 35.371 81.6385 35.0262 81.6385ZM35.0262 81.2216C35.283 81.2216 35.5135 81.1618 35.7175 81.0422C35.9251 80.9226 36.0869 80.752 36.203 80.5304C36.3226 80.3087 36.3824 80.0519 36.3824 79.7599C36.3824 79.4644 36.3226 79.2076 36.203 78.9895C36.0869 78.7679 35.9268 78.5973 35.7228 78.4777C35.5187 78.358 35.2866 78.2982 35.0262 78.2982C34.7659 78.2982 34.5337 78.358 34.3297 78.4777C34.1257 78.5973 33.9638 78.7679 33.8442 78.9895C33.7281 79.2076 33.6701 79.4644 33.6701 79.7599C33.6701 80.0519 33.7281 80.3087 33.8442 80.5304C33.9638 80.752 34.1257 80.9226 34.3297 81.0422C34.5372 81.1618 34.7694 81.2216 35.0262 81.2216ZM42.5095 81.6016H42.0293L40.098 78.6729V81.6016H39.6178V77.9183H40.098L42.0293 80.8417V77.9183H42.5095V81.6016ZM46.5839 77.9236C46.985 77.9236 47.3315 77.9992 47.6235 78.1505C47.919 78.2982 48.1441 78.5111 48.2989 78.789C48.4572 79.0669 48.5364 79.3941 48.5364 79.7705C48.5364 80.1469 48.4572 80.4741 48.2989 80.752C48.1441 81.0264 47.919 81.2375 47.6235 81.3852C47.3315 81.5294 46.985 81.6016 46.5839 81.6016H45.4389V77.9236H46.5839ZM46.5839 81.2058C47.0588 81.2058 47.4212 81.0809 47.671 80.8311C47.9207 80.5779 48.0456 80.2243 48.0456 79.7705C48.0456 79.3132 47.919 78.9561 47.6657 78.6993C47.4159 78.4425 47.0553 78.3141 46.5839 78.3141H45.919V81.2058H46.5839ZM51.7607 78.3141V79.5436H53.101V79.9393H51.7607V81.2058H53.2593V81.6016H51.2805V77.9183H53.2593V78.3141H51.7607ZM57.2629 81.6385C57.0201 81.6385 56.802 81.5963 56.6085 81.5119C56.4186 81.4239 56.2691 81.3043 56.16 81.153C56.0509 80.9982 55.9947 80.8206 55.9911 80.6201H56.503C56.5206 80.7924 56.5909 80.9384 56.7141 81.058C56.8407 81.1741 57.0236 81.2322 57.2629 81.2322C57.4915 81.2322 57.6709 81.1759 57.8011 81.0633C57.9348 80.9472 58.0016 80.7995 58.0016 80.6201C58.0016 80.4793 57.9629 80.365 57.8855 80.2771C57.8081 80.1891 57.7114 80.1223 57.5953 80.0765C57.4792 80.0308 57.3227 79.9816 57.1257 79.9288C56.8829 79.8655 56.6877 79.8022 56.5399 79.7388C56.3957 79.6755 56.2708 79.577 56.1653 79.4433C56.0633 79.3061 56.0122 79.1232 56.0122 78.8945C56.0122 78.694 56.0633 78.5164 56.1653 78.3616C56.2673 78.2068 56.4098 78.0872 56.5927 78.0027C56.7792 77.9183 56.992 77.8761 57.2312 77.8761C57.576 77.8761 57.8574 77.9623 58.0755 78.1347C58.2971 78.307 58.422 78.5357 58.4502 78.8207H57.9225C57.9049 78.6799 57.831 78.5568 57.7008 78.4513C57.5707 78.3422 57.3983 78.2877 57.1837 78.2877C56.9832 78.2877 56.8196 78.3405 56.693 78.446C56.5663 78.548 56.503 78.6923 56.503 78.8787C56.503 79.0124 56.5399 79.1214 56.6138 79.2059C56.6912 79.2903 56.7844 79.3554 56.8935 79.4011C57.0061 79.4433 57.1626 79.4926 57.3631 79.5489C57.6059 79.6157 57.8011 79.6825 57.9489 79.7494C58.0966 79.8127 58.2233 79.913 58.3288 80.0502C58.4343 80.1838 58.4871 80.3668 58.4871 80.599C58.4871 80.7784 58.4396 80.9472 58.3446 81.1055C58.2496 81.2638 58.1089 81.3922 57.9225 81.4907C57.736 81.5892 57.5162 81.6385 57.2629 81.6385ZM63.4786 80.7836H61.8744L61.5789 81.6016H61.0723L62.4021 77.9447H62.9561L64.2806 81.6016H63.7741L63.4786 80.7836ZM63.3414 80.3932L62.6765 78.5357L62.0116 80.3932H63.3414Z" fill="#F4F4F4"/>
</svg>
