<svg width="23" height="23" viewBox="0 0 23 23" fill="none" xmlns="http://www.w3.org/2000/svg">
<path d="M11.5 16C13.9853 16 16 13.9853 16 11.5C16 9.01472 13.9853 7 11.5 7C9.01472 7 7 9.01472 7 11.5C7 13.9853 9.01472 16 11.5 16Z" stroke="#F4F4F4" stroke-width="1.7" stroke-miterlimit="10" stroke-linecap="round" stroke-linejoin="round"/>
<path d="M22 12.1176C22 19.0833 19.6667 22 11.5 22C3.33333 22 1 19.6667 1 11.5C1 3.91667 3.33333 1 11.5 1C20.25 1 22 3.91667 22 12.1176Z" stroke="#F4F4F4" stroke-width="1.7" stroke-linecap="round" stroke-linejoin="round"/>
<path d="M16.5 6C16.7761 6 17 5.77614 17 5.5C17 5.22386 16.7761 5 16.5 5C16.2239 5 16 5.22386 16 5.5C16 5.77614 16.2239 6 16.5 6Z" fill="#292D32" stroke="#F4F4F4" stroke-width="1.7" stroke-linecap="round" stroke-linejoin="round"/>
</svg>
