<svg width="286" height="68" viewBox="0 0 286 68" fill="none" xmlns="http://www.w3.org/2000/svg">
<rect x="0.75" y="0.75" width="284.5" height="66.5" rx="31.25" stroke="#333333" stroke-width="1.5"/>
<path d="M49.8776 40.2988L45.3326 29.6488H46.8776L50.4626 38.1238L54.0626 29.6488H55.5776L51.0476 40.2988H49.8776ZM57.1402 40.2988V29.6488H63.3502V30.9688H58.5352V34.1938H62.4502V35.5138H58.5352V38.9788H63.3502V40.2988H57.1402ZM65.4898 40.2988V29.6488H69.1198C70.0998 29.6488 70.8748 29.9188 71.4448 30.4588C72.0148 30.9888 72.2998 31.6988 72.2998 32.5888C72.2998 33.3688 72.0648 34.0088 71.5948 34.5088C71.1348 35.0088 70.4898 35.3188 69.6598 35.4388L73.7698 40.2988H72.0148L67.9198 35.4538H66.8848V40.2988H65.4898ZM66.8848 34.2088H68.9548C69.5748 34.2088 70.0548 34.0738 70.3948 33.8038C70.7348 33.5238 70.9048 33.1188 70.9048 32.5888C70.9048 32.0588 70.7348 31.6538 70.3948 31.3738C70.0548 31.0838 69.5748 30.9388 68.9548 30.9388H66.8848V34.2088ZM78.3657 40.2988V29.6488H81.4257C83.0557 29.6488 84.4057 30.1538 85.4757 31.1638C86.5558 32.1738 87.0958 33.4438 87.0958 34.9738C87.0958 36.5038 86.5558 37.7738 85.4757 38.7838C84.4057 39.7938 83.0557 40.2988 81.4257 40.2988H78.3657ZM79.7607 38.9938H81.4257C82.6957 38.9938 83.7207 38.6188 84.5007 37.8688C85.2907 37.1088 85.6857 36.1438 85.6857 34.9738C85.6857 33.8038 85.2907 32.8438 84.5007 32.0938C83.7207 31.3338 82.6957 30.9538 81.4257 30.9538H79.7607V38.9938ZM89.1763 40.2988V29.6488H95.3863V30.9688H90.5713V34.1938H94.4863V35.5138H90.5713V38.9788H95.3863V40.2988H89.1763ZM103.421 30.6088C104.101 31.2488 104.441 32.0588 104.441 33.0388C104.441 34.0188 104.101 34.8288 103.421 35.4688C102.751 36.0988 101.871 36.4138 100.781 36.4138H98.9209V40.2988H97.5259V29.6488H100.781C101.871 29.6488 102.751 29.9688 103.421 30.6088ZM102.446 34.5388C102.856 34.1488 103.061 33.6488 103.061 33.0388C103.061 32.4288 102.856 31.9288 102.446 31.5388C102.046 31.1488 101.491 30.9538 100.781 30.9538H98.9209V35.1238H100.781C101.491 35.1238 102.046 34.9288 102.446 34.5388ZM104.482 40.2988L109.192 29.6488H110.347L115.072 40.2988H113.617L112.237 37.1938H107.272L105.922 40.2988H104.482ZM109.747 31.5388L107.827 35.9338H111.682L109.747 31.5388ZM116.569 40.2988V29.6488H120.199C121.179 29.6488 121.954 29.9188 122.524 30.4588C123.094 30.9888 123.379 31.6988 123.379 32.5888C123.379 33.3688 123.144 34.0088 122.674 34.5088C122.214 35.0088 121.569 35.3188 120.739 35.4388L124.849 40.2988H123.094L118.999 35.4538H117.964V40.2988H116.569ZM117.964 34.2088H120.034C120.654 34.2088 121.134 34.0738 121.474 33.8038C121.814 33.5238 121.984 33.1188 121.984 32.5888C121.984 32.0588 121.814 31.6538 121.474 31.3738C121.134 31.0838 120.654 30.9388 120.034 30.9388H117.964V34.2088ZM127.987 40.2988V30.9688H124.672V29.6488H132.667V30.9688H129.352V40.2988H127.987ZM132.051 40.2988L136.761 29.6488H137.916L142.641 40.2988H141.186L139.806 37.1938H134.841L133.491 40.2988H132.051ZM137.316 31.5388L135.396 35.9338H139.251L137.316 31.5388ZM144.137 40.2988V29.6488H145.412L149.357 35.8888L153.317 29.6488H154.592V40.2988H153.212V32.3488L149.867 37.6138H148.877L145.532 32.3338V40.2988H144.137ZM157.409 40.2988V29.6488H163.619V30.9688H158.804V34.1938H162.719V35.5138H158.804V38.9788H163.619V40.2988H157.409ZM174.833 40.2988H173.633L167.153 32.0038V40.2988H165.758V29.6488H166.973L173.453 37.9438V29.6488H174.833V40.2988ZM179.828 40.2988V30.9688H176.513V29.6488H184.508V30.9688H181.193V40.2988H179.828ZM190.406 39.1588C191.576 39.1588 192.551 38.7538 193.331 37.9438C194.121 37.1338 194.516 36.1438 194.516 34.9738C194.516 33.8038 194.121 32.8138 193.331 32.0038C192.551 31.1938 191.576 30.7888 190.406 30.7888C189.246 30.7888 188.271 31.1938 187.481 32.0038C186.701 32.8138 186.311 33.8038 186.311 34.9738C186.311 36.1438 186.701 37.1338 187.481 37.9438C188.271 38.7538 189.246 39.1588 190.406 39.1588ZM190.406 40.4788C188.876 40.4788 187.576 39.9488 186.506 38.8888C185.436 37.8188 184.901 36.5138 184.901 34.9738C184.901 33.4338 185.436 32.1338 186.506 31.0738C187.576 30.0038 188.876 29.4688 190.406 29.4688C191.946 29.4688 193.246 30.0038 194.306 31.0738C195.376 32.1338 195.911 33.4338 195.911 34.9738C195.911 36.5138 195.376 37.8188 194.306 38.8888C193.246 39.9488 191.946 40.4788 190.406 40.4788ZM200.85 40.4788C200 40.4788 199.235 40.2988 198.555 39.9388C197.875 39.5788 197.4 39.1188 197.13 38.5588L198.24 37.7188C198.87 38.6888 199.75 39.1738 200.88 39.1738C201.46 39.1738 201.935 39.0288 202.305 38.7388C202.675 38.4488 202.86 38.0638 202.86 37.5838C202.86 36.7638 202.35 36.1638 201.33 35.7838L199.92 35.2438C199.07 34.9338 198.45 34.5488 198.06 34.0888C197.68 33.6188 197.49 33.0238 197.49 32.3038C197.49 31.4438 197.805 30.7588 198.435 30.2488C199.065 29.7288 199.865 29.4688 200.835 29.4688C201.485 29.4688 202.08 29.6038 202.62 29.8738C203.16 30.1338 203.595 30.4838 203.925 30.9238L202.92 31.8238C202.32 31.1238 201.615 30.7738 200.805 30.7738C200.265 30.7738 199.81 30.9138 199.44 31.1938C199.07 31.4638 198.885 31.8138 198.885 32.2438C198.885 32.6738 199.005 33.0138 199.245 33.2638C199.495 33.5138 199.91 33.7438 200.49 33.9538L201.765 34.4488C202.595 34.7588 203.215 35.1588 203.625 35.6488C204.045 36.1388 204.255 36.7638 204.255 37.5238C204.255 38.4138 203.935 39.1288 203.295 39.6688C202.665 40.2088 201.85 40.4788 200.85 40.4788Z" fill="#333333"/>
<path d="M228.729 39.2431L238.691 29.7705" stroke="#333333" stroke-width="2" stroke-linecap="round" stroke-linejoin="round"/>
<path d="M232.05 29.7705H238.691V36.0856" stroke="#333333" stroke-width="2" stroke-linecap="round" stroke-linejoin="round"/>
</svg>
